<svg id="Inner-Page" xmlns="http://www.w3.org/2000/svg" width="314.693" height="179.416" viewBox="0 0 314.693 179.416">
  <g id="Contact" transform="translate(-1330 -175)">
    <g id="banner">
      <g id="Group-2">
        <g id="Shape-_-abstract--Copy" data-name="Shape-&amp;-abstract--Copy" transform="translate(1213 175)">
          <g id="Group" transform="translate(117)">
            <path id="Fill-1" d="M8.113,45.842a2.868,2.868,0,1,0,.109,4.051,2.865,2.865,0,0,0-.109-4.051" fill="#005792" fill-rule="evenodd"/>
            <path id="Fill-3" d="M21.229,31.1a2.867,2.867,0,1,0,.113,4.049,2.866,2.866,0,0,0-.113-4.049" fill="#005792" fill-rule="evenodd"/>
            <path id="Fill-5" d="M35.157,16.349a2.866,2.866,0,1,0,.113,4.055,2.874,2.874,0,0,0-.113-4.055" fill="#005792" fill-rule="evenodd"/>
            <path id="Fill-7" d="M49.855,6.451a2.679,2.679,0,0,0,.954-1.524c-1.934.586-3.843,1.2-5.737,1.888a4.347,4.347,0,0,0,4.782-.365" fill="#005792" fill-rule="evenodd"/>
            <path id="Fill-9" d="M6.481,71.238a2.871,2.871,0,1,0,.113,4.053,2.86,2.86,0,0,0-.113-4.053" fill="#005792" fill-rule="evenodd"/>
            <path id="Fill-11" d="M19.587,57.3a2.87,2.87,0,1,0,.113,4.06,2.869,2.869,0,0,0-.113-4.06" fill="#005792" fill-rule="evenodd"/>
            <path id="Fill-13" d="M34.335,42.563a2.87,2.87,0,1,0,.117,4.055,2.866,2.866,0,0,0-.117-4.055" fill="#005792" fill-rule="evenodd"/>
            <path id="Fill-15" d="M47.453,27.812a2.87,2.87,0,1,0,.113,4.063,2.878,2.878,0,0,0-.113-4.063" fill="#005792" fill-rule="evenodd"/>
            <path id="Fill-17" d="M61.383,13.9a2.866,2.866,0,1,0,.121,4.048,2.868,2.868,0,0,0-.121-4.048" fill="#005792" fill-rule="evenodd"/>
            <path id="Fill-19" d="M70.551,3.343a2.96,2.96,0,0,0,4.061-.108A2.631,2.631,0,0,0,75.019.006c-1.7-.023-3.394.019-5.071.151a2.644,2.644,0,0,0,.6,3.186" fill="#005792" fill-rule="evenodd"/>
            <path id="Fill-21" d="M4.839,97.455a2.869,2.869,0,1,0,.117,4.055,2.871,2.871,0,0,0-.117-4.055" fill="#005792" fill-rule="evenodd"/>
            <path id="Fill-23" d="M19.59,83.53a2.869,2.869,0,1,0,.117,4.048,2.867,2.867,0,0,0-.117-4.048" fill="#005792" fill-rule="evenodd"/>
            <path id="Fill-25" d="M32.7,68.781a2.87,2.87,0,1,0,.109,4.054,2.87,2.87,0,0,0-.109-4.054" fill="#005792" fill-rule="evenodd"/>
            <path id="Fill-27" d="M47.45,54.03a2.87,2.87,0,1,0,.117,4.062,2.871,2.871,0,0,0-.117-4.062" fill="#005792" fill-rule="evenodd"/>
            <path id="Fill-29" d="M59.753,40.1a2.873,2.873,0,1,0,.109,4.061,2.875,2.875,0,0,0-.109-4.061" fill="#005792" fill-rule="evenodd"/>
            <path id="Fill-31" d="M72.86,25.362a2.868,2.868,0,1,0,.109,4.052,2.872,2.872,0,0,0-.109-4.052" fill="#005792" fill-rule="evenodd"/>
            <path id="Fill-33" d="M87.609,10.615a2.87,2.87,0,1,0,.109,4.05,2.862,2.862,0,0,0-.109-4.05" fill="#005792" fill-rule="evenodd"/>
            <path id="Fill-35" d="M17.945,108.927a2.866,2.866,0,1,0,.121,4.047,2.853,2.853,0,0,0-.121-4.047" fill="#005792" fill-rule="evenodd"/>
            <path id="Fill-37" d="M31.058,95a2.863,2.863,0,1,0,.117,4.051A2.863,2.863,0,0,0,31.058,95" fill="#005792" fill-rule="evenodd"/>
            <path id="Fill-39" d="M45.809,80.243a2.872,2.872,0,1,0,.117,4.055,2.872,2.872,0,0,0-.117-4.055" fill="#005792" fill-rule="evenodd"/>
            <path id="Fill-41" d="M58.922,65.5a2.866,2.866,0,1,0,.113,4.057,2.863,2.863,0,0,0-.113-4.057" fill="#005792" fill-rule="evenodd"/>
            <path id="Fill-43" d="M72.855,51.585a2.865,2.865,0,1,0,.117,4.038,2.861,2.861,0,0,0-.117-4.038" fill="#005792" fill-rule="evenodd"/>
            <path id="Fill-45" d="M85.974,36.83a2.87,2.87,0,1,0,.109,4.056,2.876,2.876,0,0,0-.109-4.056" fill="#005792" fill-rule="evenodd"/>
            <path id="Fill-47" d="M99.085,22.086a2.867,2.867,0,1,0,.117,4.052,2.865,2.865,0,0,0-.117-4.052" fill="#005792" fill-rule="evenodd"/>
            <path id="Fill-49" d="M110.106,12.9a4.293,4.293,0,0,0,4.625.221c-.952-.545-1.867-1.1-2.87-1.663-.911-.5-1.847-.938-2.748-1.4a2.543,2.543,0,0,0,.992,2.839" fill="#005792" fill-rule="evenodd"/>
            <path id="Fill-51" d="M29.423,121.215a2.866,2.866,0,1,0,.117,4.055,2.879,2.879,0,0,0-.117-4.055" fill="#005792" fill-rule="evenodd"/>
            <path id="Fill-53" d="M44.169,106.464a2.868,2.868,0,1,0,.117,4.049,2.872,2.872,0,0,0-.117-4.049" fill="#005792" fill-rule="evenodd"/>
            <path id="Fill-55" d="M57.285,91.721a2.868,2.868,0,1,0,.113,4.059,2.864,2.864,0,0,0-.113-4.059" fill="#005792" fill-rule="evenodd"/>
            <path id="Fill-57" d="M72.041,77.794a2.869,2.869,0,1,0,.117,4.055,2.87,2.87,0,0,0-.117-4.055" fill="#005792" fill-rule="evenodd"/>
            <path id="Fill-59" d="M85.15,63.046a2.867,2.867,0,1,0,.113,4.051,2.872,2.872,0,0,0-.113-4.051" fill="#005792" fill-rule="evenodd"/>
            <path id="Fill-61" d="M99.084,48.3a2.869,2.869,0,1,0,.109,4.053,2.865,2.865,0,0,0-.109-4.053" fill="#005792" fill-rule="evenodd"/>
            <path id="Fill-63" d="M112.2,34.375a2.868,2.868,0,1,0,.109,4.05,2.861,2.861,0,0,0-.109-4.05" fill="#005792" fill-rule="evenodd"/>
            <path id="Fill-65" d="M121.446,25.336a3.042,3.042,0,0,0,4.4-.131,3.36,3.36,0,0,0,.354-.48c-1.4-1.395-2.944-2.812-4.562-4.243a3.334,3.334,0,0,0-.319.294,3.3,3.3,0,0,0,.122,4.56" fill="#005792" fill-rule="evenodd"/>
            <path id="Fill-67" d="M42.542,134.323a2.87,2.87,0,1,0,.1,4.052,2.879,2.879,0,0,0-.1-4.052" fill="#005792" fill-rule="evenodd"/>
            <path id="Fill-69" d="M55.647,119.575a2.868,2.868,0,1,0,.117,4.05,2.864,2.864,0,0,0-.117-4.05" fill="#005792" fill-rule="evenodd"/>
            <path id="Fill-71" d="M70.4,104.827a2.868,2.868,0,1,0,.113,4.052,2.858,2.858,0,0,0-.113-4.052" fill="#005792" fill-rule="evenodd"/>
            <path id="Fill-73" d="M83.509,90.084a2.867,2.867,0,1,0,.113,4.048,2.868,2.868,0,0,0-.113-4.048" fill="#005792" fill-rule="evenodd"/>
            <path id="Fill-75" d="M97.44,76.148a2.871,2.871,0,1,0,.117,4.066,2.874,2.874,0,0,0-.117-4.066" fill="#005792" fill-rule="evenodd"/>
            <path id="Fill-77" d="M110.554,59.771a2.868,2.868,0,1,0,.117,4.051,2.872,2.872,0,0,0-.117-4.051" fill="#005792" fill-rule="evenodd"/>
            <path id="Fill-79" d="M125.306,45.84a2.869,2.869,0,1,0,.1,4.06,2.868,2.868,0,0,0-.1-4.06" fill="#005792" fill-rule="evenodd"/>
            <path id="Fill-81" d="M134.476,36.756a2.518,2.518,0,0,0,3.2.6c-.994-1.766-2.12-3.581-3.363-5.4a3.958,3.958,0,0,0,.161,4.805" fill="#005792" fill-rule="evenodd"/>
            <path id="Fill-83" d="M55.644,145.8a2.864,2.864,0,1,0,.121,4.049,2.855,2.855,0,0,0-.121-4.049" fill="#005792" fill-rule="evenodd"/>
            <path id="Fill-85" d="M68.759,131.044a2.869,2.869,0,1,0,.113,4.048,2.865,2.865,0,0,0-.113-4.048" fill="#005792" fill-rule="evenodd"/>
            <path id="Fill-87" d="M81.876,116.3a2.87,2.87,0,1,0,.113,4.064,2.868,2.868,0,0,0-.113-4.064" fill="#005792" fill-rule="evenodd"/>
            <path id="Fill-89" d="M96.629,102.369a2.871,2.871,0,1,0,.1,4.05,2.877,2.877,0,0,0-.1-4.05" fill="#005792" fill-rule="evenodd"/>
            <path id="Fill-91" d="M109.739,87.618a2.872,2.872,0,1,0,.117,4.056,2.884,2.884,0,0,0-.117-4.056" fill="#005792" fill-rule="evenodd"/>
            <path id="Fill-93" d="M123.672,72.874a2.871,2.871,0,1,0,.109,4.057,2.879,2.879,0,0,0-.109-4.057" fill="#005792" fill-rule="evenodd"/>
            <path id="Fill-95" d="M136.782,58.951a2.865,2.865,0,1,0-3.942,4.159,2.865,2.865,0,1,0,3.942-4.159" fill="#005792" fill-rule="evenodd"/>
            <path id="Fill-97" d="M67.12,157.253a2.873,2.873,0,1,0,.109,4.057,2.881,2.881,0,0,0-.109-4.057" fill="#005792" fill-rule="evenodd"/>
            <path id="Fill-99" d="M81.873,142.512a2.868,2.868,0,1,0,.113,4.054,2.871,2.871,0,0,0-.113-4.054" fill="#005792" fill-rule="evenodd"/>
            <path id="Fill-101" d="M94.985,127.766a2.871,2.871,0,1,0,.113,4.052,2.866,2.866,0,0,0-.113-4.052" fill="#005792" fill-rule="evenodd"/>
            <path id="Fill-103" d="M109.737,113.839a2.869,2.869,0,1,0,.113,4.056,2.865,2.865,0,0,0-.113-4.056" fill="#005792" fill-rule="evenodd"/>
            <path id="Fill-105" d="M122.851,99.094a2.869,2.869,0,1,0,.109,4.051,2.862,2.862,0,0,0-.109-4.051" fill="#005792" fill-rule="evenodd"/>
            <path id="Fill-107" d="M135.145,84.349a2.868,2.868,0,1,0,.109,4.051,2.89,2.89,0,0,0-.109-4.051" fill="#005792" fill-rule="evenodd"/>
            <path id="Fill-109" d="M146.019,70.52a2.855,2.855,0,0,0,.119,4.073,2.937,2.937,0,0,0,2.844.655c-.2-1.763-.348-3.628-.516-5.593a2.932,2.932,0,0,0-2.446.865" fill="#005792" fill-rule="evenodd"/>
            <path id="Fill-111" d="M80.234,168.728a2.871,2.871,0,1,0,.117,4.048,2.867,2.867,0,0,0-.117-4.048" fill="#005792" fill-rule="evenodd"/>
            <path id="Fill-113" d="M93.344,153.981a2.869,2.869,0,1,0,.117,4.056,2.869,2.869,0,0,0-.117-4.056" fill="#005792" fill-rule="evenodd"/>
            <path id="Fill-115" d="M108.1,140.059a2.868,2.868,0,1,0,.109,4.049,2.87,2.87,0,0,0-.109-4.049" fill="#005792" fill-rule="evenodd"/>
            <path id="Fill-117" d="M121.209,125.3a2.872,2.872,0,1,0,.113,4.06,2.876,2.876,0,0,0-.113-4.06" fill="#005792" fill-rule="evenodd"/>
            <path id="Fill-119" d="M135.137,110.567a2.867,2.867,0,1,0,.113,4.05,2.865,2.865,0,0,0-.113-4.05" fill="#005792" fill-rule="evenodd"/>
            <path id="Fill-121" d="M148.255,96.637a2.871,2.871,0,1,0,.113,4.046,2.869,2.869,0,0,0-.113-4.046" fill="#005792" fill-rule="evenodd"/>
            <path id="Fill-125" d="M106.46,165.452a2.869,2.869,0,1,0,.117,4.056,2.865,2.865,0,0,0-.117-4.056" fill="#005792" fill-rule="evenodd"/>
            <path id="Fill-127" d="M119.567,151.52a2.872,2.872,0,1,0,.117,4.055,2.881,2.881,0,0,0-.117-4.055" fill="#005792" fill-rule="evenodd"/>
            <path id="Fill-129" d="M134.322,136.781a2.869,2.869,0,1,0,.113,4.05,2.865,2.865,0,0,0-.113-4.05" fill="#005792" fill-rule="evenodd"/>
            <path id="Fill-131" d="M147.435,122.033a2.866,2.866,0,1,0,.109,4.052,2.876,2.876,0,0,0-.109-4.052" fill="#005792" fill-rule="evenodd"/>
            <path id="Fill-133" d="M161.368,108.1a2.868,2.868,0,1,0,.109,4.052,2.883,2.883,0,0,0-.109-4.052" fill="#005792" fill-rule="evenodd"/>
            <path id="Fill-135" d="M172.87,98.318c-.8-.27-1.594-.553-2.364-.852.025.029.049.061.074.086a2.881,2.881,0,0,0,2.291.766" fill="#005792" fill-rule="evenodd"/>
            <path id="Fill-141" d="M132.688,163a2.868,2.868,0,1,0,.1,4.049,2.868,2.868,0,0,0-.1-4.049" fill="#005792" fill-rule="evenodd"/>
            <path id="Fill-143" d="M145.795,148.248a2.87,2.87,0,1,0,.113,4.052,2.863,2.863,0,0,0-.113-4.052" fill="#005792" fill-rule="evenodd"/>
            <path id="Fill-145" d="M160.549,134.321a2.868,2.868,0,1,0,.1,4.057,2.888,2.888,0,0,0-.1-4.057" fill="#005792" fill-rule="evenodd"/>
            <path id="Fill-147" d="M172.839,119.581a2.867,2.867,0,1,0,.117,4.038,2.872,2.872,0,0,0-.117-4.038" fill="#005792" fill-rule="evenodd"/>
            <path id="Fill-149" d="M187.586,104.829a2.864,2.864,0,1,0,.117,4.056,2.859,2.859,0,0,0-.117-4.056" fill="#005792" fill-rule="evenodd"/>
            <path id="Fill-157" d="M144.157,174.464a2.869,2.869,0,1,0,.109,4.052,2.876,2.876,0,0,0-.109-4.052" fill="#005792" fill-rule="evenodd"/>
            <path id="Fill-159" d="M158.911,159.716a2.871,2.871,0,1,0,.109,4.06,2.869,2.869,0,0,0-.109-4.06" fill="#005792" fill-rule="evenodd"/>
            <path id="Fill-161" d="M172.025,145.792a2.867,2.867,0,1,0,.109,4.047,2.881,2.881,0,0,0-.109-4.047" fill="#005792" fill-rule="evenodd"/>
            <path id="Fill-163" d="M185.953,131.05a2.867,2.867,0,1,0,.113,4.051,2.86,2.86,0,0,0-.113-4.051" fill="#005792" fill-rule="evenodd"/>
            <path id="Fill-165" d="M199.06,116.3a2.87,2.87,0,1,0,.117,4.05,2.865,2.865,0,0,0-.117-4.05" fill="#005792" fill-rule="evenodd"/>
            <path id="Fill-167" d="M213.073,106.112c-1.367-.233-2.734-.471-4.1-.692a3.055,3.055,0,0,0,.436.557,2.689,2.689,0,0,0,3.661.135" fill="#005792" fill-rule="evenodd"/>
            <path id="Fill-177" d="M170.378,172a2.869,2.869,0,1,0,.113,4.055,2.877,2.877,0,0,0-.113-4.055" fill="#005792" fill-rule="evenodd"/>
            <path id="Fill-179" d="M185.126,157.258a2.866,2.866,0,1,0,.117,4.055,2.861,2.861,0,0,0-.117-4.055" fill="#005792" fill-rule="evenodd"/>
            <path id="Fill-181" d="M198.243,142.513a2.867,2.867,0,1,0,.117,4.056,2.866,2.866,0,0,0-.117-4.056" fill="#005792" fill-rule="evenodd"/>
            <path id="Fill-183" d="M212.177,127.767a2.87,2.87,0,1,0,.117,4.05,2.861,2.861,0,0,0-.117-4.05" fill="#005792" fill-rule="evenodd"/>
            <path id="Fill-185" d="M225.288,113.841a2.868,2.868,0,1,0,.117,4.051,2.882,2.882,0,0,0-.117-4.051" fill="#005792" fill-rule="evenodd"/>
            <path id="Fill-199" d="M198.235,168.728a2.866,2.866,0,1,0,.117,4.048,2.865,2.865,0,0,0-.117-4.048" fill="#005792" fill-rule="evenodd"/>
            <path id="Fill-201" d="M210.536,153.982a2.869,2.869,0,1,0,.117,4.053,2.868,2.868,0,0,0-.117-4.053" fill="#005792" fill-rule="evenodd"/>
            <path id="Fill-203" d="M223.653,140.058a2.869,2.869,0,1,0,.109,4.047,2.867,2.867,0,0,0-.109-4.047" fill="#005792" fill-rule="evenodd"/>
            <path id="Fill-205" d="M238.4,125.308a2.866,2.866,0,1,0,.117,4.053,2.859,2.859,0,0,0-.117-4.053" fill="#005792" fill-rule="evenodd"/>
            <path id="Fill-207" d="M250.771,115.6c-1.366-.524-2.736-1.02-4.1-1.487a2.824,2.824,0,0,0,.691,1.2,2.614,2.614,0,0,0,3.407.291" fill="#005792" fill-rule="evenodd"/>
            <path id="Fill-223" d="M223.645,167.091a2.868,2.868,0,1,0,.117,4.052,2.865,2.865,0,0,0-.117-4.052" fill="#005792" fill-rule="evenodd"/>
            <path id="Fill-225" d="M236.762,153.169a2.865,2.865,0,1,0,.109,4.047,2.867,2.867,0,0,0-.109-4.047" fill="#005792" fill-rule="evenodd"/>
            <path id="Fill-227" d="M249.875,138.423a2.865,2.865,0,1,0,.109,4.036,2.869,2.869,0,0,0-.109-4.036" fill="#005792" fill-rule="evenodd"/>
            <path id="Fill-229" d="M264.618,123.669a2.868,2.868,0,1,0,.117,4.054,2.861,2.861,0,0,0-.117-4.054" fill="#005792" fill-rule="evenodd"/>
            <path id="Fill-247" d="M249.873,164.635a2.866,2.866,0,1,0,.117,4.052,2.858,2.858,0,0,0-.117-4.052" fill="#005792" fill-rule="evenodd"/>
            <path id="Fill-249" d="M262.983,149.884a2.866,2.866,0,1,0,.117,4.056,2.865,2.865,0,0,0-.117-4.056" fill="#005792" fill-rule="evenodd"/>
            <path id="Fill-251" d="M277.732,135.137a2.871,2.871,0,1,0,.113,4.054,2.87,2.87,0,0,0-.113-4.054" fill="#005792" fill-rule="evenodd"/>
            <path id="Fill-271" d="M276.094,161.354a2.866,2.866,0,1,0,.113,4.057,2.871,2.871,0,0,0-.113-4.057" fill="#005792" fill-rule="evenodd"/>
            <path id="Fill-273" d="M289.211,146.607a2.87,2.87,0,1,0,.117,4.056,2.871,2.871,0,0,0-.117-4.056" fill="#005792" fill-rule="evenodd"/>
            <path id="Fill-293" d="M287.567,172.824a2.866,2.866,0,1,0,.117,4.054,2.868,2.868,0,0,0-.117-4.054" fill="#005792" fill-rule="evenodd"/>
            <path id="Fill-295" d="M302.321,158.9a2.867,2.867,0,1,0,.117,4.057,2.868,2.868,0,0,0-.117-4.057" fill="#005792" fill-rule="evenodd"/>
            <path id="Fill-317" d="M313.792,170.368a2.868,2.868,0,1,0,.117,4.055,2.859,2.859,0,0,0-.117-4.055" fill="#005792" fill-rule="evenodd"/>
          </g>
        </g>
      </g>
    </g>
  </g>
</svg>
