<svg xmlns="http://www.w3.org/2000/svg" width="313.839" height="216.783" viewBox="0 0 313.839 216.783">
  <g id="Inner-Page" transform="translate(-0.161 -0.422)">
    <g id="Contact" transform="translate(-896 -909)">
      <g id="About-" transform="translate(0 350)">
        <g id="Background">
          <g id="Shape-_-abstract-" data-name="Shape-&amp;-abstract-" transform="translate(1210 486) rotate(180)">
            <g id="Group-405" transform="translate(0 -73)">
              <path id="Fill-403" d="M11.428-64.569c-24.673-41.842-6.622-100.223,27.7-133.987,17.732-17.341,41.611-20.011,65.329-18.136,15.374.974,26.819,5.719,38.739,15.761,8.679,7.6,16.106,13.669,27.707,17.029,16.385,4.59,32.837,2.164,48.049-4.94,11.115-5.107,21.923-10.587,34.905-10.231,46.434.15,81.049,69.758,45.031,102.988-19.2,17.875-44.908,30.86-70.945,30.849-20.783.178-31.6,5.669-45.16,20.312C169.144-29.593,158.2-13.259,137.972-5.3,119.91,2.2,56.252,11.414,11.428-64.569" fill="#005792" fill-rule="evenodd"/>
            </g>
          </g>
        </g>
      </g>
    </g>
  </g>
</svg>
