<svg xmlns="http://www.w3.org/2000/svg" width="294" height="326.459" viewBox="0 0 294 326.459">
  <g id="Inner-Page" transform="translate(0 -0.388)">
    <g id="Home-01" transform="translate(-1383 -422)">
      <g id="Image-and-Shape" transform="translate(1055 177)">
        <g id="Humaaan-A-Human_Sitting" data-name="Humaaan-A-Human/Sitting" transform="translate(675 222) rotate(180)">
          <g id="Head_Front-Head_Front_Short-2" data-name="Head/Front-Head/Front/Short-2" transform="translate(82)">
            <g id="Head" transform="translate(54 -30.21)">
              <path id="Path_2" data-name="Path 2" d="M38.143-8.9c5.795-10.526,5.106-37.225-2.383-39.106-2.987-.75-9.349,1.087-15.824,4.891L24-71.139H0L8.261-33.61C3.654-28.339.536-21.88,1.057-14.642,2.558,6.212,32.349,1.625,38.143-8.9Z" fill="#b28b67" fill-rule="evenodd"/>
            </g>
            <path id="Hair" d="M60.418-68.515c-3.012,13.059-11.594,21.962-10.283,27.8a8.954,8.954,0,0,0,6.986,7.26q2.935,11.572,18.934,9.844c16-1.728,25.764-8.2,21.547-22.45-3.876,0-8.556,1.366-15.027-.975q-3.08-1.114-4.406-6.909H75.246q-4.257,6.877-8.4,5.055T64.97-57.748l-1.44-10.767Z" fill-rule="evenodd"/>
          </g>
          <g id="Bottom_Skinny-Jeans-1-Bottom_Sitting_Baggy-Pants" data-name="Bottom/Skinny-Jeans-1-Bottom/Sitting/Baggy-Pants" transform="translate(0 -182.232)">
            <g id="Seat-Objects_Seat_Cube-2" data-name="Seat-Objects/Seat/Cube-2" transform="translate(10 -40.929)">
              <path id="Seat" d="M174,0a16,16,0,0,0,16-16v-88.839a16,16,0,0,0-16-16H59a16,16,0,0,0-16,16V-16A16,16,0,0,0,59,0ZM158-27.286H75a4,4,0,0,1-4-4h0V-89.552a4,4,0,0,1,4-4h83a4,4,0,0,1,4,4h0v58.266a4,4,0,0,1-4,4Z" fill="#c5cfd6" fill-rule="evenodd"/>
            </g>
            <path id="LegLower" d="M299.159-156.9q-29.574,35.193-40.021,52.181c-11.925,19.392-21.685,36.647-24.765,43.238-7.345,15.718,16.909,23.078,22.4,15.747Q269.233-62.374,310-150.48Z" fill="#b28b67" fill-rule="evenodd"/>
            <path id="LegLower-2" data-name="LegLower" d="M258.758-150.074,222.065-60.065c-7.848,16.408,30.051,27.193,35.818,19.557C270.977-57.844,302.1-126.231,306-131.4Z" fill="#005792" fill-rule="evenodd"/>
            <g id="Lower-Leg" transform="matrix(0.777, -0.629, 0.629, 0.777, 242.957, -24.154)">
              <path id="LegLower-3" data-name="LegLower" d="M4.81-134.438C3.8-122.159,1.934-79.65,3.8-59.974c.538,5.654,1.1,11.121,1.675,16.249,1.7,15.242,30.7,14.761,28.4.28-5.736-36.064-15.831-86.6-16.555-90.972C16.307-140.539,5.443-142.155,4.81-134.438Z" fill="#b28b67" fill-rule="evenodd"/>
            </g>
            <g id="Right-Shoe-Accessories_Shoe_Flat-Sneaker-1" data-name="Right-Shoe-Accessories/Shoe/Flat-Sneaker-1" transform="matrix(0.866, -0.5, 0.5, 0.866, 172.831, -104.302)">
              <path id="shoe" d="M2.675-24.763A20.463,20.463,0,0,1,1-31.287a47.7,47.7,0,0,1,.9-7.693H58.3q2.2,7.083-2.538,7.648t-7.87,1.02L21.667-18.918a1,1,0,0,1-1.316-.519l0-.009-1.684-3.98h0a18.347,18.347,0,0,0-7.127-1.994,16.514,16.514,0,0,0-6.178,1.765h0a2,2,0,0,1-2.643-1.008Q2.694-24.713,2.675-24.763Z" fill="#e4e4e4" fill-rule="evenodd"/>
            </g>
            <g id="Right-Shoe-Accessories_Shoe_Flat-Sneaker-2" data-name="Right-Shoe-Accessories/Shoe/Flat-Sneaker-2" transform="translate(288 -128.635)">
              <path id="shoe-2" data-name="shoe" d="M2.675-24.763A20.463,20.463,0,0,1,1-31.287a47.7,47.7,0,0,1,.9-7.693H58.3q2.2,7.083-2.538,7.648t-7.87,1.02L21.666-18.918a1,1,0,0,1-1.316-.519l0-.009-1.684-3.98h0a18.347,18.347,0,0,0-7.127-1.994,16.514,16.514,0,0,0-6.178,1.765h0a2,2,0,0,1-2.643-1.008Q2.694-24.713,2.675-24.763Z" fill="#e4e4e4" fill-rule="evenodd"/>
            </g>
            <path id="Leg-and-Butt" d="M208.862-64.561q-45.745,7.262-61.282,9.932c-29.523,5.073-38.132,20.555-33.042,54.334h54.4q10.8-3.039,90.233-37.586c9.528-4.609,7.754-18.2,6.012-22.677q-.107-.274-48.187-80.465l-44.5,27.625,36.451,45.583Q210.39-64.982,208.862-64.561Z" fill="#005792" fill-rule="evenodd"/>
          </g>
          <g id="Body_Long-Sleeve-1-Body_Hoodie" data-name="Body/Long-Sleeve-1-Body/Hoodie" transform="translate(22 -79.909)">
            <path id="Skin" d="M89.407-90.539Q69.749-151.6,68.188-155.334c-2.341-5.607,2.5-14.1,4.572-18.67-6.828-3.013-6.044,8.017-14.658,4.068-7.863-3.6-13.864-10.094-22.9-4.68-1.111.666-2.318,3.188.642,5.178,7.376,4.96,18.013,13.63,19.459,16.473q2.958,5.815,13.227,62.4h0Zm101.405.649,31.865-22.786a86.9,86.9,0,0,0,21.671-8.463c1.369-1.216,3.023-3.68-2.662-3.261s-11.686.61-12.473-1.282,2.651-4.147,1.061-6.7q-1.589-2.553-14.968,12.77l-31.568,12.723Z" fill="#b28b67" fill-rule="evenodd"/>
            <path id="Coat-Back" d="M122.731-9.336l8.485,2.174c34.377-24.181,52.145-74.751,93.78-98.793l-8.407-12.194C147.889-115.743,125.383-54.13,122.731-9.336Z" transform="translate(6.122 14.915) rotate(-5)" fill="#c61010" fill-rule="evenodd"/>
            <path id="Shirt" d="M90-111.093h76.511c3.5,0,2.837,4.92,2.332,7.4-5.833,28.651-28.6,59.535-28.6,100.319L118.172,0C99.917-28.61,93.6-63.834,90-111.093Z" fill="#dde3e9" fill-rule="evenodd"/>
            <path id="Coat-Front" d="M116.51,0a14.193,14.193,0,0,0,2.046-.136l6.916-.385q29.436-97.219,16.663-130.374l-.262-.663H81.652a198.075,198.075,0,0,0-10.243-20.464H55q-2.316,72.99,35.616,123.9A12.539,12.539,0,0,0,83-21.84C74.934-7.656,77.847.154,86.467,2.721S102.775,0,116.51,0Z" fill="#c61010" fill-rule="evenodd"/>
            <path id="Shade" d="M104-131.558H81.652q6.243,14.186,13.113,33.622Q97.606-121.1,104-131.558Z" fill="rgba(0,0,0,0.1)" fill-rule="evenodd"/>
          </g>
        </g>
      </g>
    </g>
  </g>
</svg>
