<svg xmlns="http://www.w3.org/2000/svg" width="265.998" height="362.563" viewBox="0 0 265.998 362.563">
  <g id="Inner-Page" transform="translate(-0.26 -0.437)">
    <g id="Services" transform="translate(-1339 -255)">
      <g id="Banner">
        <g id="banner-content" transform="translate(315 197)">
          <g id="_Human_Standing-A-Human_Standing" data-name="ðŸ˜Human/Standing-A-Human/Standing" transform="translate(1290 55) rotate(180)">
            <g id="Head_Front-Head_Front_Chongo" data-name="Head/Front-Head/Front/Chongo" transform="translate(70.52)">
              <g id="Head" transform="translate(46.44 -26.634)">
                <path id="Path_1" data-name="Path 1" d="M32.8-7.847c4.984-9.28,4.391-32.819-2.049-34.477-2.569-.661-8.041.959-13.61,4.312l3.5-24.706H0L7.105-29.632C3.143-24.985.461-19.29.909-12.909,2.2,5.477,27.82,1.432,32.8-7.847Z" fill="#b28b67" fill-rule="evenodd"/>
              </g>
              <path id="hair" d="M71.091-24.374a26.963,26.963,0,0,1-8.637.953,14.827,14.827,0,0,1,1.052,7.5,22.846,22.846,0,0,1-2.436,6.782,9.277,9.277,0,0,1-1.8,2.805,6.155,6.155,0,0,1-2.915,1.565,7.808,7.808,0,0,1-3.358,0c-.488-.1-.926-.326-1.405-.449s-.728.18-1.084.488a6.143,6.143,0,0,1-3.2,1.24,8.26,8.26,0,0,1-3.642-.436A7.129,7.129,0,0,1,40.63-5.865a5.081,5.081,0,0,1-.909-1.391c-.088-.211-.1-.337-.314-.414-.2-.072-.424-.074-.625-.142a7.862,7.862,0,0,1-4.522-4.095,12.97,12.97,0,0,1-.711-5.334c.069-2.223,2.078-8.025,3.958-10.141a12.629,12.629,0,0,1,6.524-3.681,18.639,18.639,0,0,1-3.409-6.35,31.05,31.05,0,0,1-1.56-7.714,25.154,25.154,0,0,1,.387-7.6A8.242,8.242,0,0,1,43.138-58.1a17.627,17.627,0,0,1,2.84-1.332,18.7,18.7,0,0,1,2.925-.937c1.9-.393,4.092-.325,5.556,1.187a10.423,10.423,0,0,1,1.493,1.9c.138.239.222.4.054.63a4.509,4.509,0,0,1-.786.714,7.4,7.4,0,0,0-2.62,4.9c-.234,2.012.307,4.61,2.266,5.488,2.418,1.084,5.08-.16,7.229-1.32a11.809,11.809,0,0,0,5.728,7.6c3.252,1.634,6.984,1.825,10.327,3.227a6.162,6.162,0,0,1,2.4,1.524,3.1,3.1,0,0,1,.689,1.126,1.823,1.823,0,0,1-.478,1.415C79.331-29.747,73.911-25.233,71.091-24.374Z" fill-rule="evenodd"/>
            </g>
            <g id="Bottom_Skinny-Jeans-1-Bottom_Standing_Jogging" data-name="Bottom/Skinny-Jeans-1-Bottom/Standing/Jogging" transform="translate(0 -160.662)">
              <path id="Leg" d="M111.8,0l63.9-106.73,47.909-90.231h10.319L153.659,0Z" fill="#997659" fill-rule="evenodd"/>
              <g id="Right-Shoe-Accessories_Shoe_Flat-Sneaker" data-name="Right-Shoe-Accessories/Shoe/Flat-Sneaker" transform="translate(215 -170.972)">
                <path id="shoe" d="M2.194-22.117A17.678,17.678,0,0,1,.86-27.584a43.069,43.069,0,0,1,.775-6.782H50.141q1.891,6.245-2.183,6.742t-6.768.9L18.776-16.742a1,1,0,0,1-1.32-.507l-.011-.025L16.05-20.653h0a15.478,15.478,0,0,0-6.129-1.758,13.381,13.381,0,0,0-5.033,1.429h0A2,2,0,0,1,2.246-21.99Q2.218-22.053,2.194-22.117Z" fill="#e4e4e4" fill-rule="evenodd"/>
              </g>
              <path id="Pant" d="M210.307-182.513l19.9,6.014q-13.078,39.059-32.059,85.966T157.38,0H101.174a882.7,882.7,0,0,1,51.361-100.285A678.779,678.779,0,0,1,210.307-182.513Z" fill="#db2721" fill-rule="evenodd"/>
              <path id="Leg-2" data-name="Leg" d="M107.6,0c-6.031-37.506-17.664-85.424-18.762-86.9q-1.1-1.479-79.043-26.461l2.229-9.091q92.95,13.4,97.953,20.789c5,7.391,29.986,65.783,39.663,101.664Z" fill="#b28b67" fill-rule="evenodd"/>
              <path id="Pant-2" data-name="Pant" d="M28.061-105.5l3.926-14.641q69.521-6.091,85.194,8.8T152.907,0h-53.6q-12.7-78.979-14.205-82.294T28.061-105.5Z" fill="#ff4133" fill-rule="evenodd"/>
              <g id="Left-Shoe-Accessories_Shoe_Flat-Sneaker" data-name="Left-Shoe-Accessories/Shoe/Flat-Sneaker" transform="translate(33.437 -103.495) rotate(-80)">
                <path id="shoe-2" data-name="shoe" d="M2.194-22.117A17.678,17.678,0,0,1,.86-27.584a43.07,43.07,0,0,1,.775-6.782H50.141q1.891,6.245-2.183,6.742t-6.768.9L18.776-16.742a1,1,0,0,1-1.32-.507l-.011-.025L16.05-20.653h0a15.478,15.478,0,0,0-6.129-1.758,13.381,13.381,0,0,0-5.033,1.429h0A2,2,0,0,1,2.246-21.99Q2.218-22.053,2.194-22.117Z" fill="#e4e4e4" fill-rule="evenodd"/>
              </g>
            </g>
            <g id="Body_Long-Sleeve-1-Body_Pointing-Forward" data-name="Body/Long-Sleeve-1-Body/Pointing-Forward" transform="translate(18.92 -70.451)">
              <path id="Skin" d="M205.158-39.871c3.726.766,12.821,7.524,14.388,6.152,2.318-2.03.251-8.262-2.184-11.363-4.552-5.795-8.321-7.776-17.637-10.371q-7.306-2.035-15.8-8.158l-.747,13.145,13.112,7.2q2.76,10.491,6.6,10.556C204.855-31.8,201.432-40.638,205.158-39.871ZM182.588-9.9c-2.408-4.273-4.749-8.875-3.524-10.19s4.283.524,5.744-1.661q1.461-2.186-15.67-6.916L147.45-48.527,136.439-36.705,166.28-20.349A73.911,73.911,0,0,0,180.951-6.613C182.423-6,185-5.625,182.588-9.9Z" fill="#997659" fill-rule="evenodd"/>
              <path id="Sleeve" d="M122.858-29.856a73.412,73.412,0,0,1,40.631,5.468l3.732-13.769C155.493-46.6,139.933-52.6,127.528-50.282,117.751-48.453,114.614-35.792,122.858-29.856Z" transform="translate(-4.123 -22.782) rotate(9)" fill="#005792" fill-rule="evenodd"/>
              <path id="Clothes" d="M122.588,0c1.317-16.9,7.943-35.522,13.382-53.921q16.648-4.15,55.841,9.783,9.721-20.091,8.988-28.647c-22.417-11.7-41.629-16.913-57.457-17.256.509-9.38-.633-18.308-4.474-26.466-7.894-16.769-54.119-1.239-69.661-4.3-9.733,31.578,9.086,44.411,9.1,64.616C78.324-34.059,96.109,0,98.725,0h23.862Z" fill="#005792" fill-rule="evenodd"/>
            </g>
          </g>
        </g>
      </g>
    </g>
  </g>
</svg>
