<svg xmlns="http://www.w3.org/2000/svg" width="147.343" height="76.19" viewBox="0 0 147.343 76.19">
  <g id="Inner-Page" transform="translate(1.361)">
    <g id="Blog-New" transform="translate(-719 -1574)">
      <g id="Link" transform="translate(315 1440)">
        <g id="Rectangle-2">
          <g id="Shape-_-abstract-" data-name="Shape-&amp;-abstract-" transform="translate(284 134)">
            <g id="Group" transform="translate(117)">
              <path id="Fill-1" d="M8.113,45.842a2.868,2.868,0,1,0,.109,4.051,2.865,2.865,0,0,0-.109-4.051" fill="#005792" fill-rule="evenodd"/>
              <path id="Fill-3" d="M21.229,31.1a2.867,2.867,0,1,0,.113,4.049,2.866,2.866,0,0,0-.113-4.049" fill="#005792" fill-rule="evenodd"/>
              <path id="Fill-5" d="M35.157,16.349a2.866,2.866,0,1,0,.113,4.055,2.874,2.874,0,0,0-.113-4.055" fill="#005792" fill-rule="evenodd"/>
              <path id="Fill-7" d="M49.855,6.451a2.679,2.679,0,0,0,.954-1.524c-1.934.586-3.843,1.2-5.737,1.888a4.347,4.347,0,0,0,4.782-.365" fill="#005792" fill-rule="evenodd"/>
              <path id="Fill-9" d="M6.481,71.238a2.871,2.871,0,1,0,.113,4.053,2.86,2.86,0,0,0-.113-4.053" fill="#005792" fill-rule="evenodd"/>
              <path id="Fill-11" d="M19.587,57.3a2.87,2.87,0,1,0,.113,4.06,2.869,2.869,0,0,0-.113-4.06" fill="#005792" fill-rule="evenodd"/>
              <path id="Fill-13" d="M34.335,42.563a2.87,2.87,0,1,0,.117,4.055,2.866,2.866,0,0,0-.117-4.055" fill="#005792" fill-rule="evenodd"/>
              <path id="Fill-15" d="M47.453,27.812a2.87,2.87,0,1,0,.113,4.063,2.878,2.878,0,0,0-.113-4.063" fill="#005792" fill-rule="evenodd"/>
              <path id="Fill-17" d="M61.383,13.9a2.866,2.866,0,1,0,.121,4.048,2.868,2.868,0,0,0-.121-4.048" fill="#005792" fill-rule="evenodd"/>
              <path id="Fill-19" d="M70.551,3.343a2.96,2.96,0,0,0,4.061-.108A2.631,2.631,0,0,0,75.019.006c-1.7-.023-3.394.019-5.071.151a2.644,2.644,0,0,0,.6,3.186" fill="#005792" fill-rule="evenodd"/>
              <path id="Fill-25" d="M32.7,68.781a2.87,2.87,0,1,0,.109,4.054,2.87,2.87,0,0,0-.109-4.054" fill="#005792" fill-rule="evenodd"/>
              <path id="Fill-27" d="M47.45,54.03a2.87,2.87,0,1,0,.117,4.062,2.871,2.871,0,0,0-.117-4.062" fill="#005792" fill-rule="evenodd"/>
              <path id="Fill-29" d="M59.753,40.1a2.873,2.873,0,1,0,.109,4.061,2.875,2.875,0,0,0-.109-4.061" fill="#005792" fill-rule="evenodd"/>
              <path id="Fill-31" d="M72.86,25.362a2.868,2.868,0,1,0,.109,4.052,2.872,2.872,0,0,0-.109-4.052" fill="#005792" fill-rule="evenodd"/>
              <path id="Fill-33" d="M87.609,10.615a2.87,2.87,0,1,0,.109,4.05,2.862,2.862,0,0,0-.109-4.05" fill="#005792" fill-rule="evenodd"/>
              <path id="Fill-41" d="M58.922,65.5a2.866,2.866,0,1,0,.113,4.057,2.863,2.863,0,0,0-.113-4.057" fill="#005792" fill-rule="evenodd"/>
              <path id="Fill-43" d="M72.855,51.585a2.865,2.865,0,1,0,.117,4.038,2.861,2.861,0,0,0-.117-4.038" fill="#005792" fill-rule="evenodd"/>
              <path id="Fill-45" d="M85.974,36.83a2.87,2.87,0,1,0,.109,4.056,2.876,2.876,0,0,0-.109-4.056" fill="#005792" fill-rule="evenodd"/>
              <path id="Fill-47" d="M99.085,22.086a2.867,2.867,0,1,0,.117,4.052,2.865,2.865,0,0,0-.117-4.052" fill="#005792" fill-rule="evenodd"/>
              <path id="Fill-49" d="M110.106,12.9a4.293,4.293,0,0,0,4.625.221c-.952-.545-1.867-1.1-2.87-1.663-.911-.5-1.847-.938-2.748-1.4a2.543,2.543,0,0,0,.992,2.839" fill="#005792" fill-rule="evenodd"/>
              <path id="Fill-59" d="M85.15,63.046a2.867,2.867,0,1,0,.113,4.051,2.872,2.872,0,0,0-.113-4.051" fill="#005792" fill-rule="evenodd"/>
              <path id="Fill-61" d="M99.084,48.3a2.869,2.869,0,1,0,.109,4.053,2.865,2.865,0,0,0-.109-4.053" fill="#005792" fill-rule="evenodd"/>
              <path id="Fill-63" d="M112.2,34.375a2.868,2.868,0,1,0,.109,4.05,2.861,2.861,0,0,0-.109-4.05" fill="#005792" fill-rule="evenodd"/>
              <path id="Fill-65" d="M121.446,25.336a3.042,3.042,0,0,0,4.4-.131,3.36,3.36,0,0,0,.354-.48c-1.4-1.395-2.944-2.812-4.562-4.243a3.334,3.334,0,0,0-.319.294,3.3,3.3,0,0,0,.122,4.56" fill="#005792" fill-rule="evenodd"/>
              <path id="Fill-77" d="M110.554,59.771a2.868,2.868,0,1,0,.117,4.051,2.872,2.872,0,0,0-.117-4.051" fill="#005792" fill-rule="evenodd"/>
              <path id="Fill-79" d="M125.306,45.84a2.869,2.869,0,1,0,.1,4.06,2.868,2.868,0,0,0-.1-4.06" fill="#005792" fill-rule="evenodd"/>
              <path id="Fill-81" d="M134.476,36.756a2.518,2.518,0,0,0,3.2.6c-.994-1.766-2.12-3.581-3.363-5.4a3.958,3.958,0,0,0,.161,4.805" fill="#005792" fill-rule="evenodd"/>
              <path id="Fill-95" d="M136.782,58.951a2.865,2.865,0,1,0-3.942,4.159,2.865,2.865,0,1,0,3.942-4.159" fill="#005792" fill-rule="evenodd"/>
              <path id="Fill-109" d="M146.019,70.52a2.855,2.855,0,0,0,.119,4.073,2.937,2.937,0,0,0,2.844.655c-.2-1.763-.348-3.628-.516-5.593a2.932,2.932,0,0,0-2.446.865" fill="#005792" fill-rule="evenodd"/>
            </g>
          </g>
        </g>
      </g>
    </g>
  </g>
</svg>
