<svg xmlns="http://www.w3.org/2000/svg" width="327.805" height="200.401" viewBox="0 0 327.805 200.401">
  <g id="Inner-Page" transform="translate(0 -0.327)">
    <g id="Home-01" transform="translate(-257 -11618)">
      <g id="Elements_CTA" data-name="Elements/CTA" transform="translate(0 11283)">
        <g id="Background">
          <g id="Group_1" data-name="Group 1">
            <g id="Shape-_-abstract-" data-name="Shape-&amp;-abstract-" transform="translate(257 -250.731)">
              <g id="Group-Copy" transform="translate(0 586.058)">
                <path id="Fill-1" d="M8.113,46.723a2.827,2.827,0,0,0-4.049.115,2.965,2.965,0,0,0,.109,4.133,2.82,2.82,0,0,0,4.049-.119,2.941,2.941,0,0,0-.109-4.129" fill="#005792" fill-rule="evenodd"/>
                <path id="Fill-3" d="M21.229,31.7a2.828,2.828,0,0,0-4.057.115,2.963,2.963,0,0,0,.117,4.131,2.827,2.827,0,0,0,4.053-.119,2.954,2.954,0,0,0-.113-4.127" fill="#005792" fill-rule="evenodd"/>
                <path id="Fill-5" d="M35.157,16.663a2.836,2.836,0,0,0-4.056.115,2.97,2.97,0,0,0,.117,4.129,2.824,2.824,0,0,0,4.052-.111,2.952,2.952,0,0,0-.113-4.133" fill="#005792" fill-rule="evenodd"/>
                <path id="Fill-7" d="M49.855,6.575a2.739,2.739,0,0,0,.954-1.553c-1.934.6-3.843,1.227-5.737,1.925a4.281,4.281,0,0,0,4.782-.372" fill="#005792" fill-rule="evenodd"/>
                <path id="Fill-9" d="M6.481,72.608a2.822,2.822,0,0,0-4.049.119,2.954,2.954,0,0,0,.1,4.135,2.839,2.839,0,0,0,4.057-.123,2.968,2.968,0,0,0-.113-4.131" fill="#005792" fill-rule="evenodd"/>
                <path id="Fill-11" d="M19.587,58.406a2.831,2.831,0,0,0-4.053.131,2.954,2.954,0,0,0,.117,4.126,2.825,2.825,0,0,0,4.049-.119,2.962,2.962,0,0,0-.113-4.138" fill="#005792" fill-rule="evenodd"/>
                <path id="Fill-13" d="M34.335,43.382a2.828,2.828,0,0,0-4.047.115,2.974,2.974,0,0,0,.109,4.141,2.838,2.838,0,0,0,4.055-.123,2.953,2.953,0,0,0-.117-4.133" fill="#005792" fill-rule="evenodd"/>
                <path id="Fill-15" d="M47.453,28.347a2.84,2.84,0,0,0-4.059.127,2.962,2.962,0,0,0,.117,4.125,2.83,2.83,0,0,0,4.055-.111,2.97,2.97,0,0,0-.113-4.141" fill="#005792" fill-rule="evenodd"/>
                <path id="Fill-17" d="M61.383,14.163a2.83,2.83,0,0,0-4.058.111,2.968,2.968,0,0,0,.117,4.13,2.835,2.835,0,0,0,4.062-.115,2.96,2.96,0,0,0-.121-4.126" fill="#005792" fill-rule="evenodd"/>
                <path id="Fill-19" d="M70.551,3.407a2.92,2.92,0,0,0,4.061-.11A2.72,2.72,0,0,0,75.019.006c-1.7-.024-3.394.02-5.071.154a2.732,2.732,0,0,0,.6,3.248" fill="#005792" fill-rule="evenodd"/>
                <path id="Fill-21" d="M4.839,99.329a2.833,2.833,0,0,0-4.06.119A2.967,2.967,0,0,0,.9,103.578a2.84,2.84,0,0,0,4.06-.115,2.968,2.968,0,0,0-.117-4.133" fill="#005792" fill-rule="evenodd"/>
                <path id="Fill-23" d="M19.59,85.136a2.829,2.829,0,0,0-4.052.111,2.97,2.97,0,0,0,.109,4.138,2.839,2.839,0,0,0,4.06-.123,2.959,2.959,0,0,0-.117-4.126" fill="#005792" fill-rule="evenodd"/>
                <path id="Fill-25" d="M32.7,70.1a2.832,2.832,0,0,0-4.055.115,2.972,2.972,0,0,0,.113,4.136,2.831,2.831,0,0,0,4.051-.119A2.952,2.952,0,0,0,32.7,70.1" fill="#005792" fill-rule="evenodd"/>
                <path id="Fill-27" d="M47.45,55.069a2.833,2.833,0,0,0-4.053.123,2.966,2.966,0,0,0,.117,4.136,2.84,2.84,0,0,0,4.053-.119,2.968,2.968,0,0,0-.117-4.14" fill="#005792" fill-rule="evenodd"/>
                <path id="Fill-29" d="M59.753,40.875A2.836,2.836,0,0,0,55.692,41a2.957,2.957,0,0,0,.117,4.131,2.841,2.841,0,0,0,4.053-.119,2.982,2.982,0,0,0-.109-4.139" fill="#005792" fill-rule="evenodd"/>
                <path id="Fill-31" d="M72.86,25.85a2.834,2.834,0,0,0-4.058.115,2.962,2.962,0,0,0,.113,4.129,2.825,2.825,0,0,0,4.054-.115,2.958,2.958,0,0,0-.109-4.129" fill="#005792" fill-rule="evenodd"/>
                <path id="Fill-33" d="M87.609,10.819a2.824,2.824,0,0,0-4.052.119,2.962,2.962,0,0,0,.109,4.132,2.828,2.828,0,0,0,4.052-.123,2.95,2.95,0,0,0-.109-4.128" fill="#005792" fill-rule="evenodd"/>
                <path id="Fill-35" d="M17.945,111.022a2.815,2.815,0,0,0-4.049.119,2.959,2.959,0,0,0,.109,4.125,2.833,2.833,0,0,0,4.061-.119,2.948,2.948,0,0,0-.121-4.125" fill="#005792" fill-rule="evenodd"/>
                <path id="Fill-37" d="M31.058,96.823a2.825,2.825,0,0,0-4.047.115,2.95,2.95,0,0,0,.117,4.129,2.814,2.814,0,0,0,4.047-.115,2.95,2.95,0,0,0-.117-4.129" fill="#005792" fill-rule="evenodd"/>
                <path id="Fill-39" d="M45.809,81.786a2.833,2.833,0,0,0-4.048.123,2.971,2.971,0,0,0,.109,4.137,2.832,2.832,0,0,0,4.056-.127,2.955,2.955,0,0,0-.117-4.133" fill="#005792" fill-rule="evenodd"/>
                <path id="Fill-41" d="M58.922,66.765a2.825,2.825,0,0,0-4.053.119,2.961,2.961,0,0,0,.117,4.126,2.827,2.827,0,0,0,4.049-.111,2.952,2.952,0,0,0-.113-4.135" fill="#005792" fill-rule="evenodd"/>
                <path id="Fill-43" d="M72.855,52.577a2.823,2.823,0,0,0-4.054.107,2.97,2.97,0,0,0,.117,4.136,2.824,2.824,0,0,0,4.054-.127,2.937,2.937,0,0,0-.117-4.115" fill="#005792" fill-rule="evenodd"/>
                <path id="Fill-45" d="M85.974,37.538a2.838,2.838,0,0,0-4.061.119,2.963,2.963,0,0,0,.117,4.13,2.832,2.832,0,0,0,4.053-.115,2.968,2.968,0,0,0-.109-4.134" fill="#005792" fill-rule="evenodd"/>
                <path id="Fill-47" d="M99.085,22.511a2.827,2.827,0,0,0-4.055.115,2.954,2.954,0,0,0,.113,4.129,2.835,2.835,0,0,0,4.059-.115,2.969,2.969,0,0,0-.117-4.129" fill="#005792" fill-rule="evenodd"/>
                <path id="Fill-49" d="M110.106,13.15a4.225,4.225,0,0,0,4.625.225c-.952-.555-1.867-1.119-2.87-1.7-.911-.514-1.847-.956-2.748-1.424a2.619,2.619,0,0,0,.992,2.893" fill="#005792" fill-rule="evenodd"/>
                <path id="Fill-51" d="M29.423,123.546a2.841,2.841,0,0,0-4.057.107,2.973,2.973,0,0,0,.117,4.137,2.834,2.834,0,0,0,4.057-.111,2.964,2.964,0,0,0-.117-4.133" fill="#005792" fill-rule="evenodd"/>
                <path id="Fill-53" d="M44.169,108.511a2.834,2.834,0,0,0-4.051.115,2.972,2.972,0,0,0,.117,4.139,2.823,2.823,0,0,0,4.051-.127,2.946,2.946,0,0,0-.117-4.127" fill="#005792" fill-rule="evenodd"/>
                <path id="Fill-55" d="M57.285,93.485a2.826,2.826,0,0,0-4.05.115,2.963,2.963,0,0,0,.109,4.132,2.837,2.837,0,0,0,4.054-.111,2.961,2.961,0,0,0-.113-4.137" fill="#005792" fill-rule="evenodd"/>
                <path id="Fill-57" d="M72.041,79.29a2.832,2.832,0,0,0-4.055.115,2.961,2.961,0,0,0,.109,4.129,2.841,2.841,0,0,0,4.063-.111,2.973,2.973,0,0,0-.117-4.133" fill="#005792" fill-rule="evenodd"/>
                <path id="Fill-59" d="M85.15,64.258a2.834,2.834,0,0,0-4.059.119,2.962,2.962,0,0,0,.117,4.125,2.822,2.822,0,0,0,4.055-.115,2.955,2.955,0,0,0-.113-4.129" fill="#005792" fill-rule="evenodd"/>
                <path id="Fill-61" d="M99.084,49.228a2.827,2.827,0,0,0-4.052.119,2.956,2.956,0,0,0,.109,4.13,2.826,2.826,0,0,0,4.052-.119,2.957,2.957,0,0,0-.109-4.13" fill="#005792" fill-rule="evenodd"/>
                <path id="Fill-63" d="M112.2,35.036a2.823,2.823,0,0,0-4.054.119,2.951,2.951,0,0,0,.113,4.128,2.826,2.826,0,0,0,4.05-.119,2.958,2.958,0,0,0-.109-4.128" fill="#005792" fill-rule="evenodd"/>
                <path id="Fill-65" d="M121.446,25.823a3,3,0,0,0,4.4-.134,3.421,3.421,0,0,0,.354-.489c-1.4-1.422-2.944-2.866-4.562-4.325a3.359,3.359,0,0,0-.319.3,3.409,3.409,0,0,0,.122,4.648" fill="#005792" fill-rule="evenodd"/>
                <path id="Fill-67" d="M42.542,136.906a2.841,2.841,0,0,0-4.058.107,2.969,2.969,0,0,0,.113,4.142,2.828,2.828,0,0,0,4.05-.119,2.962,2.962,0,0,0-.1-4.13" fill="#005792" fill-rule="evenodd"/>
                <path id="Fill-69" d="M55.647,121.875a2.826,2.826,0,0,0-4.05.115,2.96,2.96,0,0,0,.109,4.132A2.832,2.832,0,0,0,55.764,126a2.959,2.959,0,0,0-.117-4.128" fill="#005792" fill-rule="evenodd"/>
                <path id="Fill-71" d="M70.4,106.842a2.82,2.82,0,0,0-4.056.131,2.943,2.943,0,0,0,.113,4.113,2.823,2.823,0,0,0,4.056-.115,2.959,2.959,0,0,0-.113-4.13" fill="#005792" fill-rule="evenodd"/>
                <path id="Fill-73" d="M83.509,91.817a2.83,2.83,0,0,0-4.058.115,2.97,2.97,0,0,0,.117,4.13,2.825,2.825,0,0,0,4.054-.119,2.946,2.946,0,0,0-.113-4.126" fill="#005792" fill-rule="evenodd"/>
                <path id="Fill-75" d="M97.44,77.613a2.835,2.835,0,0,0-4.052.123,2.969,2.969,0,0,0,.109,4.132,2.844,2.844,0,0,0,4.06-.111,2.973,2.973,0,0,0-.117-4.144" fill="#005792" fill-rule="evenodd"/>
                <path id="Fill-77" d="M110.554,60.92a2.833,2.833,0,0,0-4.051.107,2.973,2.973,0,0,0,.109,4.141,2.836,2.836,0,0,0,4.059-.119,2.958,2.958,0,0,0-.117-4.128" fill="#005792" fill-rule="evenodd"/>
                <path id="Fill-79" d="M125.306,46.722a2.83,2.83,0,0,0-4.053.119,2.962,2.962,0,0,0,.113,4.134,2.827,2.827,0,0,0,4.045-.115,2.955,2.955,0,0,0-.1-4.138" fill="#005792" fill-rule="evenodd"/>
                <path id="Fill-81" d="M134.476,37.463a2.485,2.485,0,0,0,3.2.607c-.994-1.8-2.12-3.65-3.363-5.5a4.1,4.1,0,0,0,.161,4.9" fill="#005792" fill-rule="evenodd"/>
                <path id="Fill-83" d="M55.644,148.6a2.817,2.817,0,0,0-4.051.115,2.957,2.957,0,0,0,.117,4.127,2.832,2.832,0,0,0,4.055-.115,2.953,2.953,0,0,0-.121-4.127" fill="#005792" fill-rule="evenodd"/>
                <path id="Fill-85" d="M68.759,133.564a2.827,2.827,0,0,0-4.051.115,2.967,2.967,0,0,0,.113,4.138,2.828,2.828,0,0,0,4.051-.127,2.948,2.948,0,0,0-.113-4.126" fill="#005792" fill-rule="evenodd"/>
                <path id="Fill-87" d="M81.876,118.533a2.83,2.83,0,0,0-4.057.123,2.954,2.954,0,0,0,.113,4.126,2.844,2.844,0,0,0,4.057-.107,2.981,2.981,0,0,0-.113-4.142" fill="#005792" fill-rule="evenodd"/>
                <path id="Fill-89" d="M96.629,104.338a2.838,2.838,0,0,0-4.061.119,2.967,2.967,0,0,0,.117,4.136,2.824,2.824,0,0,0,4.049-.127,2.956,2.956,0,0,0-.1-4.127" fill="#005792" fill-rule="evenodd"/>
                <path id="Fill-91" d="M109.739,89.3a2.846,2.846,0,0,0-4.062.123,2.971,2.971,0,0,0,.117,4.134,2.839,2.839,0,0,0,4.062-.123,2.975,2.975,0,0,0-.117-4.134" fill="#005792" fill-rule="evenodd"/>
                <path id="Fill-93" d="M123.672,74.276a2.841,2.841,0,0,0-4.059.119,2.963,2.963,0,0,0,.117,4.135,2.831,2.831,0,0,0,4.051-.119,2.97,2.97,0,0,0-.109-4.135" fill="#005792" fill-rule="evenodd"/>
                <path id="Fill-95" d="M136.782,60.085a2.855,2.855,0,0,0-4.067.107,2.976,2.976,0,0,0,.125,4.132,2.822,2.822,0,0,0,4.055-.107,2.964,2.964,0,0,0-.113-4.132" fill="#005792" fill-rule="evenodd"/>
                <path id="Fill-97" d="M67.12,160.278a2.842,2.842,0,0,0-4.053.119,2.978,2.978,0,0,0,.113,4.143,2.831,2.831,0,0,0,4.049-.127,2.956,2.956,0,0,0-.109-4.135" fill="#005792" fill-rule="evenodd"/>
                <path id="Fill-99" d="M81.873,145.253a2.833,2.833,0,0,0-4.056.119,2.961,2.961,0,0,0,.113,4.128,2.829,2.829,0,0,0,4.056-.115,2.962,2.962,0,0,0-.113-4.132" fill="#005792" fill-rule="evenodd"/>
                <path id="Fill-101" d="M94.985,130.223a2.828,2.828,0,0,0-4.053.119,2.965,2.965,0,0,0,.113,4.138,2.836,2.836,0,0,0,4.053-.127,2.959,2.959,0,0,0-.113-4.13" fill="#005792" fill-rule="evenodd"/>
                <path id="Fill-103" d="M109.737,116.028a2.827,2.827,0,0,0-4.053.119,2.96,2.96,0,0,0,.109,4.13,2.836,2.836,0,0,0,4.057-.115,2.965,2.965,0,0,0-.113-4.134" fill="#005792" fill-rule="evenodd"/>
                <path id="Fill-105" d="M122.851,101a2.825,2.825,0,0,0-4.053.119,2.955,2.955,0,0,0,.109,4.129,2.828,2.828,0,0,0,4.053-.119,2.958,2.958,0,0,0-.109-4.129" fill="#005792" fill-rule="evenodd"/>
                <path id="Fill-107" d="M135.145,85.971a2.852,2.852,0,0,0-4.066.107,2.98,2.98,0,0,0,.125,4.141,2.825,2.825,0,0,0,4.05-.119,2.96,2.96,0,0,0-.109-4.128" fill="#005792" fill-rule="evenodd"/>
                <path id="Fill-109" d="M146.019,71.877a2.949,2.949,0,0,0,.119,4.151,2.9,2.9,0,0,0,2.844.668c-.2-1.8-.348-3.7-.516-5.7a2.9,2.9,0,0,0-2.446.882" fill="#005792" fill-rule="evenodd"/>
                <path id="Fill-111" d="M80.234,171.973a2.829,2.829,0,0,0-4.052.119,2.965,2.965,0,0,0,.109,4.135,2.835,2.835,0,0,0,4.06-.127,2.959,2.959,0,0,0-.117-4.126" fill="#005792" fill-rule="evenodd"/>
                <path id="Fill-113" d="M93.344,156.942a2.831,2.831,0,0,0-4.052.119,2.964,2.964,0,0,0,.109,4.13,2.836,2.836,0,0,0,4.06-.115,2.965,2.965,0,0,0-.117-4.134" fill="#005792" fill-rule="evenodd"/>
                <path id="Fill-115" d="M108.1,142.752a2.832,2.832,0,0,0-4.057.111,2.965,2.965,0,0,0,.113,4.135,2.827,2.827,0,0,0,4.052-.119,2.955,2.955,0,0,0-.109-4.126" fill="#005792" fill-rule="evenodd"/>
                <path id="Fill-117" d="M121.209,127.713a2.837,2.837,0,0,0-4.057.127,2.968,2.968,0,0,0,.113,4.13,2.837,2.837,0,0,0,4.057-.119,2.967,2.967,0,0,0-.113-4.138" fill="#005792" fill-rule="evenodd"/>
                <path id="Fill-119" d="M135.137,112.694a2.827,2.827,0,0,0-4.051.107,2.975,2.975,0,0,0,.109,4.136,2.832,2.832,0,0,0,4.055-.115,2.946,2.946,0,0,0-.113-4.128" fill="#005792" fill-rule="evenodd"/>
                <path id="Fill-121" d="M148.255,98.5a2.831,2.831,0,0,0-4.059.119,2.973,2.973,0,0,0,.113,4.132,2.835,2.835,0,0,0,4.059-.127,2.955,2.955,0,0,0-.113-4.124" fill="#005792" fill-rule="evenodd"/>
                <path id="Fill-123" d="M91.707,183.664a2.824,2.824,0,0,0-4.049.119,2.949,2.949,0,0,0,.109,4.126,2.828,2.828,0,0,0,4.053-.111,2.963,2.963,0,0,0-.113-4.135" fill="#005792" fill-rule="evenodd"/>
                <path id="Fill-125" d="M106.46,168.633a2.827,2.827,0,0,0-4.052.119,2.956,2.956,0,0,0,.109,4.13,2.84,2.84,0,0,0,4.06-.115,2.973,2.973,0,0,0-.117-4.134" fill="#005792" fill-rule="evenodd"/>
                <path id="Fill-127" d="M119.567,154.434a2.843,2.843,0,0,0-4.056.119,2.98,2.98,0,0,0,.113,4.137,2.837,2.837,0,0,0,4.06-.123,2.96,2.96,0,0,0-.117-4.133" fill="#005792" fill-rule="evenodd"/>
                <path id="Fill-129" d="M134.322,139.411a2.827,2.827,0,0,0-4.057.119,2.965,2.965,0,0,0,.113,4.128,2.834,2.834,0,0,0,4.057-.119,2.957,2.957,0,0,0-.113-4.128" fill="#005792" fill-rule="evenodd"/>
                <path id="Fill-131" d="M147.435,124.379a2.837,2.837,0,0,0-4.059.115,2.959,2.959,0,0,0,.117,4.126,2.817,2.817,0,0,0,4.051-.111,2.956,2.956,0,0,0-.109-4.13" fill="#005792" fill-rule="evenodd"/>
                <path id="Fill-133" d="M161.368,110.182a2.844,2.844,0,0,0-4.065.119,2.965,2.965,0,0,0,.121,4.126,2.819,2.819,0,0,0,4.053-.115,2.959,2.959,0,0,0-.109-4.13" fill="#005792" fill-rule="evenodd"/>
                <path id="Fill-135" d="M172.87,100.209c-.8-.276-1.594-.564-2.364-.868.025.029.049.063.074.088a2.847,2.847,0,0,0,2.291.781" fill="#005792" fill-rule="evenodd"/>
                <path id="Fill-137" d="M104.821,195.356a2.827,2.827,0,0,0-4.056.119,2.964,2.964,0,0,0,.113,4.133,2.839,2.839,0,0,0,4.06-.127,2.962,2.962,0,0,0-.117-4.125" fill="#005792" fill-rule="evenodd"/>
                <path id="Fill-139" d="M117.935,181.159a2.838,2.838,0,0,0-4.059.115,2.967,2.967,0,0,0,.113,4.134,2.83,2.83,0,0,0,4.055-.119,2.962,2.962,0,0,0-.109-4.13" fill="#005792" fill-rule="evenodd"/>
                <path id="Fill-141" d="M132.688,166.132a2.83,2.83,0,0,0-4.062.119,2.954,2.954,0,0,0,.121,4.127,2.821,2.821,0,0,0,4.046-.119,2.957,2.957,0,0,0-.1-4.127" fill="#005792" fill-rule="evenodd"/>
                <path id="Fill-143" d="M145.795,151.1a2.825,2.825,0,0,0-4.055.123,2.961,2.961,0,0,0,.109,4.126,2.833,2.833,0,0,0,4.059-.119,2.958,2.958,0,0,0-.113-4.13" fill="#005792" fill-rule="evenodd"/>
                <path id="Fill-145" d="M160.549,136.9a2.85,2.85,0,0,0-4.069.115,2.977,2.977,0,0,0,.125,4.131,2.826,2.826,0,0,0,4.049-.111,2.962,2.962,0,0,0-.1-4.136" fill="#005792" fill-rule="evenodd"/>
                <path id="Fill-147" d="M172.839,121.88a2.834,2.834,0,0,0-4.06.107,2.978,2.978,0,0,0,.117,4.136,2.828,2.828,0,0,0,4.06-.127,2.945,2.945,0,0,0-.117-4.115" fill="#005792" fill-rule="evenodd"/>
                <path id="Fill-149" d="M187.586,106.845a2.821,2.821,0,0,0-4.051.119,2.951,2.951,0,0,0,.117,4.125,2.827,2.827,0,0,0,4.051-.111,2.957,2.957,0,0,0-.117-4.134" fill="#005792" fill-rule="evenodd"/>
                <path id="Fill-155" d="M131.048,192.849a2.834,2.834,0,0,0-4.063.123,2.958,2.958,0,0,0,.121,4.128,2.83,2.83,0,0,0,4.051-.119,2.967,2.967,0,0,0-.109-4.132" fill="#005792" fill-rule="evenodd"/>
                <path id="Fill-157" d="M144.157,177.819a2.838,2.838,0,0,0-4.058.115,2.967,2.967,0,0,0,.117,4.134,2.825,2.825,0,0,0,4.05-.119,2.957,2.957,0,0,0-.109-4.13" fill="#005792" fill-rule="evenodd"/>
                <path id="Fill-159" d="M158.911,162.787a2.831,2.831,0,0,0-4.057.123,2.955,2.955,0,0,0,.113,4.13,2.836,2.836,0,0,0,4.053-.115,2.973,2.973,0,0,0-.109-4.138" fill="#005792" fill-rule="evenodd"/>
                <path id="Fill-161" d="M172.025,148.6a2.842,2.842,0,0,0-4.066.115,2.959,2.959,0,0,0,.121,4.125,2.817,2.817,0,0,0,4.054-.115,2.962,2.962,0,0,0-.109-4.125" fill="#005792" fill-rule="evenodd"/>
                <path id="Fill-163" d="M185.953,133.57a2.822,2.822,0,0,0-4.054.111,2.957,2.957,0,0,0,.113,4.133,2.837,2.837,0,0,0,4.054-.115,2.963,2.963,0,0,0-.113-4.129" fill="#005792" fill-rule="evenodd"/>
                <path id="Fill-165" d="M199.06,118.533a2.827,2.827,0,0,0-4.051.119,2.967,2.967,0,0,0,.109,4.132,2.833,2.833,0,0,0,4.059-.123,2.954,2.954,0,0,0-.117-4.128" fill="#005792" fill-rule="evenodd"/>
                <path id="Fill-167" d="M213.073,108.152c-1.367-.238-2.734-.48-4.1-.706a3.106,3.106,0,0,0,.436.568,2.652,2.652,0,0,0,3.661.138" fill="#005792" fill-rule="evenodd"/>
                <path id="Fill-175" d="M157.27,189.5a2.851,2.851,0,0,0-4.062.119,2.981,2.981,0,0,0,.117,4.139,2.839,2.839,0,0,0,4.058-.119,2.973,2.973,0,0,0-.113-4.139" fill="#005792" fill-rule="evenodd"/>
                <path id="Fill-177" d="M170.378,175.31a2.839,2.839,0,0,0-4.055.119,2.966,2.966,0,0,0,.113,4.129,2.824,2.824,0,0,0,4.055-.115,2.956,2.956,0,0,0-.113-4.133" fill="#005792" fill-rule="evenodd"/>
                <path id="Fill-179" d="M185.126,160.282a2.823,2.823,0,0,0-4.047.119,2.956,2.956,0,0,0,.113,4.129,2.824,2.824,0,0,0,4.051-.115,2.953,2.953,0,0,0-.117-4.133" fill="#005792" fill-rule="evenodd"/>
                <path id="Fill-181" d="M198.243,145.253a2.828,2.828,0,0,0-4.053.119,2.954,2.954,0,0,0,.117,4.13,2.832,2.832,0,0,0,4.053-.115,2.967,2.967,0,0,0-.117-4.134" fill="#005792" fill-rule="evenodd"/>
                <path id="Fill-183" d="M212.177,130.224a2.823,2.823,0,0,0-4.051.119,2.955,2.955,0,0,0,.109,4.132,2.837,2.837,0,0,0,4.059-.123,2.966,2.966,0,0,0-.117-4.128" fill="#005792" fill-rule="evenodd"/>
                <path id="Fill-185" d="M225.288,116.031a2.843,2.843,0,0,0-4.059.107,2.981,2.981,0,0,0,.117,4.141,2.836,2.836,0,0,0,4.059-.119,2.962,2.962,0,0,0-.117-4.128" fill="#005792" fill-rule="evenodd"/>
                <path id="Fill-197" d="M183.495,187.838a2.84,2.84,0,0,0-4.062.119,2.963,2.963,0,0,0,.121,4.128,2.837,2.837,0,0,0,4.054-.107,2.978,2.978,0,0,0-.113-4.141" fill="#005792" fill-rule="evenodd"/>
                <path id="Fill-199" d="M198.235,171.973a2.827,2.827,0,0,0-4.047.115,2.967,2.967,0,0,0,.113,4.134,2.817,2.817,0,0,0,4.051-.123,2.938,2.938,0,0,0-.117-4.125" fill="#005792" fill-rule="evenodd"/>
                <path id="Fill-201" d="M210.536,156.943a2.83,2.83,0,0,0-4.055.119,2.961,2.961,0,0,0,.113,4.131,2.834,2.834,0,0,0,4.059-.119,2.965,2.965,0,0,0-.117-4.131" fill="#005792" fill-rule="evenodd"/>
                <path id="Fill-203" d="M223.653,142.752a2.829,2.829,0,0,0-4.06.119,2.958,2.958,0,0,0,.117,4.129,2.826,2.826,0,0,0,4.052-.123,2.957,2.957,0,0,0-.109-4.125" fill="#005792" fill-rule="evenodd"/>
                <path id="Fill-205" d="M238.4,127.718a2.821,2.821,0,0,0-4.054.127,2.947,2.947,0,0,0,.117,4.118,2.823,2.823,0,0,0,4.054-.115,2.958,2.958,0,0,0-.117-4.131" fill="#005792" fill-rule="evenodd"/>
                <path id="Fill-207" d="M250.771,117.822c-1.366-.534-2.736-1.04-4.1-1.516a2.892,2.892,0,0,0,.691,1.219,2.578,2.578,0,0,0,3.407.3" fill="#005792" fill-rule="evenodd"/>
                <path id="Fill-221" d="M209.714,185.331a2.83,2.83,0,0,0-4.053.123,2.961,2.961,0,0,0,.117,4.132,2.825,2.825,0,0,0,4.049-.123,2.954,2.954,0,0,0-.113-4.132" fill="#005792" fill-rule="evenodd"/>
                <path id="Fill-223" d="M223.645,170.3a2.827,2.827,0,0,0-4.049.115,2.964,2.964,0,0,0,.109,4.134,2.833,2.833,0,0,0,4.057-.119,2.956,2.956,0,0,0-.117-4.13" fill="#005792" fill-rule="evenodd"/>
                <path id="Fill-225" d="M236.762,156.114a2.829,2.829,0,0,0-4.058.111,2.959,2.959,0,0,0,.117,4.129,2.82,2.82,0,0,0,4.05-.115,2.95,2.95,0,0,0-.109-4.125" fill="#005792" fill-rule="evenodd"/>
                <path id="Fill-227" d="M249.875,141.085a2.831,2.831,0,0,0-4.057.107,2.963,2.963,0,0,0,.117,4.135,2.811,2.811,0,0,0,4.049-.127,2.938,2.938,0,0,0-.109-4.114" fill="#005792" fill-rule="evenodd"/>
                <path id="Fill-229" d="M264.618,126.047a2.823,2.823,0,0,0-4.051.123,2.963,2.963,0,0,0,.117,4.132,2.83,2.83,0,0,0,4.051-.123,2.952,2.952,0,0,0-.117-4.132" fill="#005792" fill-rule="evenodd"/>
                <path id="Fill-245" d="M235.117,182a2.82,2.82,0,0,0-4.051.107,2.962,2.962,0,0,0,.121,4.137,2.831,2.831,0,0,0,4.051-.119,2.951,2.951,0,0,0-.121-4.125" fill="#005792" fill-rule="evenodd"/>
                <path id="Fill-247" d="M249.873,167.8a2.82,2.82,0,0,0-4.052.119,2.95,2.95,0,0,0,.109,4.122,2.833,2.833,0,0,0,4.06-.111,2.964,2.964,0,0,0-.117-4.13" fill="#005792" fill-rule="evenodd"/>
                <path id="Fill-249" d="M262.983,152.767a2.827,2.827,0,0,0-4.049.119,2.948,2.948,0,0,0,.117,4.13,2.824,2.824,0,0,0,4.049-.115,2.964,2.964,0,0,0-.117-4.134" fill="#005792" fill-rule="evenodd"/>
                <path id="Fill-251" d="M277.732,137.736a2.832,2.832,0,0,0-4.055.123,2.974,2.974,0,0,0,.113,4.132,2.832,2.832,0,0,0,4.055-.123,2.951,2.951,0,0,0-.113-4.132" fill="#005792" fill-rule="evenodd"/>
                <path id="Fill-267" d="M248.237,194.521a2.843,2.843,0,0,0-4.059.107,2.964,2.964,0,0,0,.117,4.133,2.819,2.819,0,0,0,4.051-.111,2.959,2.959,0,0,0-.109-4.129" fill="#005792" fill-rule="evenodd"/>
                <path id="Fill-269" d="M261.341,179.488a2.829,2.829,0,0,0-4.052.119,2.967,2.967,0,0,0,.117,4.134,2.836,2.836,0,0,0,4.052-.115,2.96,2.96,0,0,0-.117-4.138" fill="#005792" fill-rule="evenodd"/>
                <path id="Fill-271" d="M276.094,164.457a2.833,2.833,0,0,0-4.055.119,2.962,2.962,0,0,0,.121,4.131,2.823,2.823,0,0,0,4.047-.115,2.956,2.956,0,0,0-.113-4.135" fill="#005792" fill-rule="evenodd"/>
                <path id="Fill-273" d="M289.211,149.427a2.833,2.833,0,0,0-4.054.119,2.961,2.961,0,0,0,.117,4.138,2.837,2.837,0,0,0,4.054-.123,2.971,2.971,0,0,0-.117-4.134" fill="#005792" fill-rule="evenodd"/>
                <path id="Fill-291" d="M274.457,191.18a2.829,2.829,0,0,0-4.054.115,2.957,2.957,0,0,0,.117,4.129,2.816,2.816,0,0,0,4.046-.115,2.949,2.949,0,0,0-.109-4.129" fill="#005792" fill-rule="evenodd"/>
                <path id="Fill-293" d="M287.567,176.148a2.83,2.83,0,0,0-4.054.119,2.96,2.96,0,0,0,.117,4.128,2.826,2.826,0,0,0,4.054-.115,2.958,2.958,0,0,0-.117-4.132" fill="#005792" fill-rule="evenodd"/>
                <path id="Fill-295" d="M302.321,161.953a2.83,2.83,0,0,0-4.055.119,2.958,2.958,0,0,0,.113,4.126,2.834,2.834,0,0,0,4.059-.111,2.968,2.968,0,0,0-.117-4.135" fill="#005792" fill-rule="evenodd"/>
                <path id="Fill-315" d="M300.685,187.837a2.841,2.841,0,0,0-4.061.119,2.969,2.969,0,0,0,.117,4.132,2.827,2.827,0,0,0,4.053-.119,2.961,2.961,0,0,0-.109-4.132" fill="#005792" fill-rule="evenodd"/>
                <path id="Fill-317" d="M313.792,173.645a2.822,2.822,0,0,0-4.05.119,2.959,2.959,0,0,0,.109,4.129,2.838,2.838,0,0,0,4.058-.115,2.961,2.961,0,0,0-.117-4.133" fill="#005792" fill-rule="evenodd"/>
                <path id="Fill-339" d="M322.848,185.446a2.971,2.971,0,0,0,.117,4.132,2.842,2.842,0,0,0,4.066-.111,2.955,2.955,0,0,0,.774-2c-.319-.739-.649-1.466-.98-2.206a2.842,2.842,0,0,0-3.977.189" fill="#005792" fill-rule="evenodd"/>
              </g>
            </g>
          </g>
        </g>
      </g>
    </g>
  </g>
</svg>
