<svg xmlns="http://www.w3.org/2000/svg" width="333.115" height="423.698" viewBox="0 0 333.115 423.698">
  <g id="Inner-Page" transform="translate(1)">
    <g id="Home-01" transform="translate(0 -9020)">
      <g id="Pricing" transform="translate(0 8495)">
        <g id="Background">
          <g id="Group" transform="translate(-77 525)">
            <path id="Fill-19" d="M86.089,4.081a3.611,3.611,0,0,0,4.955-.132,3.212,3.212,0,0,0,.5-3.941C89.466-.021,87.4.031,85.354.191a3.229,3.229,0,0,0,.735,3.889" fill="#005792" fill-rule="evenodd"/>
            <path id="Fill-31" d="M88.907,30.957A3.5,3.5,0,1,0,89.04,35.9a3.5,3.5,0,0,0-.133-4.945" fill="#005792" fill-rule="evenodd"/>
            <path id="Fill-33" d="M106.9,12.957a3.5,3.5,0,1,0,.133,4.944,3.492,3.492,0,0,0-.133-4.944" fill="#005792" fill-rule="evenodd"/>
            <path id="Fill-43" d="M88.9,62.966a3.5,3.5,0,1,0,.143,4.929,3.49,3.49,0,0,0-.143-4.929" fill="#005792" fill-rule="evenodd"/>
            <path id="Fill-45" d="M104.909,44.955a3.5,3.5,0,1,0,.133,4.951,3.509,3.509,0,0,0-.133-4.951" fill="#005792" fill-rule="evenodd"/>
            <path id="Fill-47" d="M120.907,26.959a3.5,3.5,0,1,0,.143,4.945,3.495,3.495,0,0,0-.143-4.945" fill="#005792" fill-rule="evenodd"/>
            <path id="Fill-49" d="M134.356,15.749a5.237,5.237,0,0,0,5.644.27c-1.161-.665-2.279-1.34-3.5-2.03-1.111-.615-2.254-1.145-3.353-1.7a3.1,3.1,0,0,0,1.211,3.465" fill="#005792" fill-rule="evenodd"/>
            <path id="Fill-57" d="M87.907,94.957a3.5,3.5,0,1,0,.143,4.95,3.5,3.5,0,0,0-.143-4.95" fill="#005792" fill-rule="evenodd"/>
            <path id="Fill-59" d="M103.9,76.956a3.5,3.5,0,1,0,.138,4.945,3.5,3.5,0,0,0-.138-4.945" fill="#005792" fill-rule="evenodd"/>
            <path id="Fill-61" d="M120.906,58.955a3.5,3.5,0,1,0,.133,4.947,3.495,3.495,0,0,0-.133-4.947" fill="#005792" fill-rule="evenodd"/>
            <path id="Fill-63" d="M136.908,41.959a3.5,3.5,0,1,0,.133,4.944,3.491,3.491,0,0,0-.133-4.944" fill="#005792" fill-rule="evenodd"/>
            <path id="Fill-65" d="M148.193,30.926a3.711,3.711,0,0,0,5.374-.16A4.1,4.1,0,0,0,154,30.18c-1.713-1.7-3.592-3.433-5.567-5.18a3.938,3.938,0,0,0-.24,5.926" fill="#005792" fill-rule="evenodd"/>
            <path id="Fill-71" d="M85.9,127.955a3.5,3.5,0,1,0,.138,4.946,3.487,3.487,0,0,0-.138-4.946" fill="#005792" fill-rule="evenodd"/>
            <path id="Fill-73" d="M101.9,109.959a3.5,3.5,0,1,0,.138,4.941,3.5,3.5,0,0,0-.138-4.941" fill="#005792" fill-rule="evenodd"/>
            <path id="Fill-75" d="M118.9,92.949a3.5,3.5,0,1,0,.143,4.963,3.506,3.506,0,0,0-.143-4.963" fill="#005792" fill-rule="evenodd"/>
            <path id="Fill-77" d="M134.9,72.958a3.5,3.5,0,1,0,.143,4.944,3.5,3.5,0,0,0-.143-4.944" fill="#005792" fill-rule="evenodd"/>
            <path id="Fill-79" d="M152.9,55.954a3.5,3.5,0,1,0,.128,4.955,3.5,3.5,0,0,0-.128-4.955" fill="#005792" fill-rule="evenodd"/>
            <path id="Fill-81" d="M164.093,44.865a3.072,3.072,0,0,0,3.907.727c-1.212-2.156-2.587-4.371-4.1-6.592a4.832,4.832,0,0,0,.2,5.865" fill="#005792" fill-rule="evenodd"/>
            <path id="Fill-85" d="M83.9,159.957a3.5,3.5,0,1,0,.138,4.941,3.5,3.5,0,0,0-.138-4.941" fill="#005792" fill-rule="evenodd"/>
            <path id="Fill-87" d="M99.908,141.955a3.5,3.5,0,1,0,.138,4.961,3.5,3.5,0,0,0-.138-4.961" fill="#005792" fill-rule="evenodd"/>
            <path id="Fill-89" d="M117.91,124.955a3.5,3.5,0,1,0,.128,4.943,3.509,3.509,0,0,0-.128-4.943" fill="#005792" fill-rule="evenodd"/>
            <path id="Fill-91" d="M133.908,106.949a3.506,3.506,0,1,0,.143,4.95,3.519,3.519,0,0,0-.143-4.95" fill="#005792" fill-rule="evenodd"/>
            <path id="Fill-93" d="M150.91,88.953a3.5,3.5,0,1,0,.133,4.952,3.512,3.512,0,0,0-.133-4.952" fill="#005792" fill-rule="evenodd"/>
            <path id="Fill-95" d="M166.906,71.957a3.5,3.5,0,1,0-4.81,5.076,3.5,3.5,0,1,0,4.81-5.076" fill="#005792" fill-rule="evenodd"/>
            <path id="Fill-97" d="M81.9,191.948a3.507,3.507,0,1,0,.133,4.952,3.514,3.514,0,0,0-.133-4.952" fill="#005792" fill-rule="evenodd"/>
            <path id="Fill-99" d="M99.9,173.955a3.5,3.5,0,1,0,.138,4.949,3.5,3.5,0,0,0-.138-4.949" fill="#005792" fill-rule="evenodd"/>
            <path id="Fill-101" d="M115.9,155.955a3.5,3.5,0,1,0,.138,4.946,3.5,3.5,0,0,0-.138-4.946" fill="#005792" fill-rule="evenodd"/>
            <path id="Fill-103" d="M133.9,138.955a3.5,3.5,0,1,0,.138,4.951,3.5,3.5,0,0,0-.138-4.951" fill="#005792" fill-rule="evenodd"/>
            <path id="Fill-105" d="M149.907,120.957a3.5,3.5,0,1,0,.133,4.945,3.492,3.492,0,0,0-.133-4.945" fill="#005792" fill-rule="evenodd"/>
            <path id="Fill-107" d="M164.909,102.958a3.5,3.5,0,1,0,.133,4.944,3.526,3.526,0,0,0-.133-4.944" fill="#005792" fill-rule="evenodd"/>
            <path id="Fill-109" d="M178.178,86.079a3.486,3.486,0,0,0,.145,4.971,3.584,3.584,0,0,0,3.47.8c-.25-2.152-.425-4.428-.63-6.827a3.577,3.577,0,0,0-2.985,1.056" fill="#005792" fill-rule="evenodd"/>
            <path id="Fill-111" d="M97.9,205.954a3.5,3.5,0,1,0,.143,4.942,3.5,3.5,0,0,0-.143-4.942" fill="#005792" fill-rule="evenodd"/>
            <path id="Fill-113" d="M113.9,187.953a3.5,3.5,0,1,0,.143,4.951,3.5,3.5,0,0,0-.143-4.951" fill="#005792" fill-rule="evenodd"/>
            <path id="Fill-115" d="M131.907,170.96a3.5,3.5,0,1,0,.133,4.942,3.5,3.5,0,0,0-.133-4.942" fill="#005792" fill-rule="evenodd"/>
            <path id="Fill-117" d="M147.9,152.949a3.505,3.505,0,1,0,.138,4.955,3.508,3.508,0,0,0-.138-4.955" fill="#005792" fill-rule="evenodd"/>
            <path id="Fill-119" d="M164.9,134.962a3.5,3.5,0,1,0,.138,4.944,3.5,3.5,0,0,0-.138-4.944" fill="#005792" fill-rule="evenodd"/>
            <path id="Fill-121" d="M180.906,117.958a3.5,3.5,0,1,0,.138,4.939,3.5,3.5,0,0,0-.138-4.939" fill="#005792" fill-rule="evenodd"/>
            <path id="Fill-123" d="M111.9,219.955a3.5,3.5,0,1,0,.138,4.952,3.491,3.491,0,0,0-.138-4.952" fill="#005792" fill-rule="evenodd"/>
            <path id="Fill-125" d="M129.906,201.955a3.5,3.5,0,1,0,.143,4.951,3.5,3.5,0,0,0-.143-4.951" fill="#005792" fill-rule="evenodd"/>
            <path id="Fill-127" d="M145.9,184.95a3.5,3.5,0,1,0,.143,4.95,3.515,3.515,0,0,0-.143-4.95" fill="#005792" fill-rule="evenodd"/>
            <path id="Fill-129" d="M163.9,166.958a3.5,3.5,0,1,0,.138,4.944,3.5,3.5,0,0,0-.138-4.944" fill="#005792" fill-rule="evenodd"/>
            <path id="Fill-131" d="M179.906,148.957a3.5,3.5,0,1,0,.133,4.946,3.508,3.508,0,0,0-.133-4.946" fill="#005792" fill-rule="evenodd"/>
            <path id="Fill-133" d="M196.907,131.954a3.5,3.5,0,1,0,.133,4.946,3.517,3.517,0,0,0-.133-4.946" fill="#005792" fill-rule="evenodd"/>
            <path id="Fill-135" d="M210.943,120.01c-.975-.33-1.945-.675-2.885-1.04.03.035.06.075.09.1a3.515,3.515,0,0,0,2.795.935" fill="#005792" fill-rule="evenodd"/>
            <path id="Fill-137" d="M127.906,233.958a3.5,3.5,0,1,0,.143,4.94,3.495,3.495,0,0,0-.143-4.94" fill="#005792" fill-rule="evenodd"/>
            <path id="Fill-139" d="M143.909,216.956a3.5,3.5,0,1,0,.133,4.946,3.509,3.509,0,0,0-.133-4.946" fill="#005792" fill-rule="evenodd"/>
            <path id="Fill-141" d="M161.911,198.96a3.5,3.5,0,1,0,.128,4.943,3.5,3.5,0,0,0-.128-4.943" fill="#005792" fill-rule="evenodd"/>
            <path id="Fill-143" d="M177.9,180.956a3.5,3.5,0,1,0,.138,4.946,3.493,3.493,0,0,0-.138-4.946" fill="#005792" fill-rule="evenodd"/>
            <path id="Fill-145" d="M195.908,163.956a3.5,3.5,0,1,0,.128,4.953,3.523,3.523,0,0,0-.128-4.953" fill="#005792" fill-rule="evenodd"/>
            <path id="Fill-147" d="M210.9,145.964a3.5,3.5,0,1,0,.143,4.929,3.5,3.5,0,0,0-.143-4.929" fill="#005792" fill-rule="evenodd"/>
            <path id="Fill-149" d="M228.9,127.958a3.5,3.5,0,1,0,.142,4.95,3.487,3.487,0,0,0-.142-4.95" fill="#005792" fill-rule="evenodd"/>
            <path id="Fill-151" d="M127.786,270.909a3.008,3.008,0,0,0-.181-4.953,5.426,5.426,0,0,0-5.6-.335c.675,2.093,1.368,4.2,2.043,6.356a5.2,5.2,0,0,0,3.743-1.068" fill="#005792" fill-rule="evenodd"/>
            <path id="Fill-153" d="M143.906,247.955a3.5,3.5,0,1,0,.138,4.951,3.5,3.5,0,0,0-.138-4.951" fill="#005792" fill-rule="evenodd"/>
            <path id="Fill-155" d="M159.91,230.956a3.5,3.5,0,1,0,.133,4.948,3.5,3.5,0,0,0-.133-4.948" fill="#005792" fill-rule="evenodd"/>
            <path id="Fill-157" d="M175.906,212.956a3.5,3.5,0,1,0,.133,4.946,3.508,3.508,0,0,0-.133-4.946" fill="#005792" fill-rule="evenodd"/>
            <path id="Fill-159" d="M193.909,194.954a3.5,3.5,0,1,0,.133,4.956,3.5,3.5,0,0,0-.133-4.956" fill="#005792" fill-rule="evenodd"/>
            <path id="Fill-161" d="M209.912,177.958a3.5,3.5,0,1,0,.133,4.94,3.514,3.514,0,0,0-.133-4.94" fill="#005792" fill-rule="evenodd"/>
            <path id="Fill-163" d="M226.907,159.964a3.5,3.5,0,1,0,.138,4.945,3.489,3.489,0,0,0-.138-4.945" fill="#005792" fill-rule="evenodd"/>
            <path id="Fill-165" d="M242.9,141.955a3.5,3.5,0,1,0,.143,4.944,3.495,3.495,0,0,0-.143-4.944" fill="#005792" fill-rule="evenodd"/>
            <path id="Fill-167" d="M260,129.523c-1.668-.285-3.337-.575-5-.845a3.727,3.727,0,0,0,.532.68,3.281,3.281,0,0,0,4.468.165" fill="#005792" fill-rule="evenodd"/>
            <path id="Fill-169" d="M141.909,279.955a3.5,3.5,0,1,0,.133,4.955,3.505,3.505,0,0,0-.133-4.955" fill="#005792" fill-rule="evenodd"/>
            <path id="Fill-171" d="M157.9,262.957a3.5,3.5,0,1,0,.143,4.941,3.511,3.511,0,0,0-.143-4.941" fill="#005792" fill-rule="evenodd"/>
            <path id="Fill-173" d="M175.9,244.951a3.5,3.5,0,1,0,.143,4.95,3.507,3.507,0,0,0-.143-4.95" fill="#005792" fill-rule="evenodd"/>
            <path id="Fill-175" d="M191.906,226.949a3.506,3.506,0,1,0,.138,4.956,3.525,3.525,0,0,0-.138-4.956" fill="#005792" fill-rule="evenodd"/>
            <path id="Fill-177" d="M207.9,209.951a3.5,3.5,0,1,0,.138,4.95,3.51,3.51,0,0,0-.138-4.95" fill="#005792" fill-rule="evenodd"/>
            <path id="Fill-179" d="M225.9,191.954a3.5,3.5,0,1,0,.142,4.95,3.491,3.491,0,0,0-.142-4.95" fill="#005792" fill-rule="evenodd"/>
            <path id="Fill-181" d="M241.9,173.955a3.5,3.5,0,1,0,.142,4.951,3.5,3.5,0,0,0-.142-4.951" fill="#005792" fill-rule="evenodd"/>
            <path id="Fill-183" d="M258.906,155.957a3.5,3.5,0,1,0,.142,4.944,3.49,3.49,0,0,0-.142-4.944" fill="#005792" fill-rule="evenodd"/>
            <path id="Fill-185" d="M274.9,138.958a3.5,3.5,0,1,0,.142,4.944,3.516,3.516,0,0,0-.142-4.944" fill="#005792" fill-rule="evenodd"/>
            <path id="Fill-187" d="M140.953,318.91a3.29,3.29,0,0,0-.157-4.949,4.116,4.116,0,0,0-5.45.143,2.326,2.326,0,0,0-.347.4c.65,1.81,1.306,3.6,2,5.328a4.087,4.087,0,0,0,3.955-.925" fill="#005792" fill-rule="evenodd"/>
            <path id="Fill-189" d="M156.913,295.955a3.5,3.5,0,1,0,.128,4.947,3.5,3.5,0,0,0-.128-4.947" fill="#005792" fill-rule="evenodd"/>
            <path id="Fill-191" d="M173.9,277.952a3.5,3.5,0,1,0,.143,4.953,3.5,3.5,0,0,0-.143-4.953" fill="#005792" fill-rule="evenodd"/>
            <path id="Fill-193" d="M189.9,260.961a3.5,3.5,0,1,0,.138,4.939,3.492,3.492,0,0,0-.138-4.939" fill="#005792" fill-rule="evenodd"/>
            <path id="Fill-195" d="M207.9,242.959a3.5,3.5,0,1,0,.138,4.95,3.488,3.488,0,0,0-.138-4.95" fill="#005792" fill-rule="evenodd"/>
            <path id="Fill-197" d="M223.907,224.955a3.5,3.5,0,1,0,.138,4.959,3.511,3.511,0,0,0-.138-4.959" fill="#005792" fill-rule="evenodd"/>
            <path id="Fill-199" d="M241.894,205.955a3.5,3.5,0,1,0,.143,4.941,3.495,3.495,0,0,0-.143-4.941" fill="#005792" fill-rule="evenodd"/>
            <path id="Fill-201" d="M256.9,187.955a3.5,3.5,0,1,0,.142,4.947,3.5,3.5,0,0,0-.142-4.947" fill="#005792" fill-rule="evenodd"/>
            <path id="Fill-203" d="M272.909,170.96a3.5,3.5,0,1,0,.133,4.94,3.5,3.5,0,0,0-.133-4.94" fill="#005792" fill-rule="evenodd"/>
            <path id="Fill-205" d="M290.9,152.955a3.5,3.5,0,1,0,.142,4.947,3.487,3.487,0,0,0-.142-4.947" fill="#005792" fill-rule="evenodd"/>
            <path id="Fill-207" d="M306,141.1c-1.667-.64-3.338-1.245-5-1.815a3.448,3.448,0,0,0,.843,1.46A3.189,3.189,0,0,0,306,141.1" fill="#005792" fill-rule="evenodd"/>
            <path id="Fill-209" d="M154.91,327.963a3.5,3.5,0,1,0,.138,4.94,3.507,3.507,0,0,0-.138-4.94" fill="#005792" fill-rule="evenodd"/>
            <path id="Fill-211" d="M172.9,309.966a3.5,3.5,0,1,0,.143,4.938,3.492,3.492,0,0,0-.143-4.938" fill="#005792" fill-rule="evenodd"/>
            <path id="Fill-213" d="M187.906,292.952a3.506,3.506,0,1,0,.137,4.961,3.5,3.5,0,0,0-.137-4.961" fill="#005792" fill-rule="evenodd"/>
            <path id="Fill-215" d="M205.906,274.951a3.5,3.5,0,1,0,.137,4.959,3.507,3.507,0,0,0-.137-4.959" fill="#005792" fill-rule="evenodd"/>
            <path id="Fill-217" d="M221.908,256.953a3.5,3.5,0,1,0,.133,4.956,3.492,3.492,0,0,0-.133-4.956" fill="#005792" fill-rule="evenodd"/>
            <path id="Fill-219" d="M239.912,239.955a3.5,3.5,0,1,0,.133,4.949,3.515,3.515,0,0,0-.133-4.949" fill="#005792" fill-rule="evenodd"/>
            <path id="Fill-221" d="M255.9,221.952a3.5,3.5,0,1,0,.138,4.948,3.5,3.5,0,0,0-.138-4.948" fill="#005792" fill-rule="evenodd"/>
            <path id="Fill-223" d="M272.9,203.956a3.5,3.5,0,1,0,.143,4.946,3.495,3.495,0,0,0-.143-4.946" fill="#005792" fill-rule="evenodd"/>
            <path id="Fill-225" d="M288.906,186.963a3.5,3.5,0,1,0,.133,4.94,3.5,3.5,0,0,0-.133-4.94" fill="#005792" fill-rule="evenodd"/>
            <path id="Fill-227" d="M304.907,168.964a3.5,3.5,0,1,0,.133,4.927,3.5,3.5,0,0,0-.133-4.927" fill="#005792" fill-rule="evenodd"/>
            <path id="Fill-229" d="M322.9,150.954a3.5,3.5,0,1,0,.142,4.948,3.491,3.491,0,0,0-.142-4.948" fill="#005792" fill-rule="evenodd"/>
            <path id="Fill-231" d="M170.9,341.954a3.5,3.5,0,1,0,.152,4.956,3.5,3.5,0,0,0-.152-4.956" fill="#005792" fill-rule="evenodd"/>
            <path id="Fill-233" d="M186.9,323.967a3.495,3.495,0,1,0,.142,4.924,3.481,3.481,0,0,0-.142-4.924" fill="#005792" fill-rule="evenodd"/>
            <path id="Fill-235" d="M203.9,306.947a3.5,3.5,0,1,0,.143,4.964,3.513,3.513,0,0,0-.143-4.964" fill="#005792" fill-rule="evenodd"/>
            <path id="Fill-237" d="M219.905,288.957a3.5,3.5,0,1,0,.138,4.948,3.5,3.5,0,0,0-.138-4.948" fill="#005792" fill-rule="evenodd"/>
            <path id="Fill-239" d="M237.906,270.955a3.5,3.5,0,1,0,.133,4.953,3.509,3.509,0,0,0-.133-4.953" fill="#005792" fill-rule="evenodd"/>
            <path id="Fill-241" d="M253.9,253.957a3.5,3.5,0,1,0,.142,4.944,3.5,3.5,0,0,0-.142-4.944" fill="#005792" fill-rule="evenodd"/>
            <path id="Fill-243" d="M271.9,235.953a3.5,3.5,0,1,0,.147,4.942,3.5,3.5,0,0,0-.147-4.942" fill="#005792" fill-rule="evenodd"/>
            <path id="Fill-245" d="M286.9,217.965a3.494,3.494,0,1,0,.147,4.94,3.487,3.487,0,0,0-.147-4.94" fill="#005792" fill-rule="evenodd"/>
            <path id="Fill-247" d="M304.9,200.959a3.5,3.5,0,1,0,.143,4.946,3.486,3.486,0,0,0-.143-4.946" fill="#005792" fill-rule="evenodd"/>
            <path id="Fill-249" d="M320.9,182.953a3.5,3.5,0,1,0,.143,4.951,3.5,3.5,0,0,0-.143-4.951" fill="#005792" fill-rule="evenodd"/>
            <path id="Fill-251" d="M338.9,164.952a3.5,3.5,0,1,0,.138,4.948,3.5,3.5,0,0,0-.138-4.948" fill="#005792" fill-rule="evenodd"/>
            <path id="Fill-253" d="M186.909,355.951a3.5,3.5,0,1,0,.138,4.956,3.523,3.523,0,0,0-.138-4.956" fill="#005792" fill-rule="evenodd"/>
            <path id="Fill-255" d="M202.9,338.955a3.5,3.5,0,1,0,.143,4.958,3.49,3.49,0,0,0-.143-4.958" fill="#005792" fill-rule="evenodd"/>
            <path id="Fill-257" d="M218.9,320.954a3.5,3.5,0,1,0,.137,4.939,3.5,3.5,0,0,0-.137-4.939" fill="#005792" fill-rule="evenodd"/>
            <path id="Fill-259" d="M235.9,302.958a3.5,3.5,0,1,0,.142,4.942,3.492,3.492,0,0,0-.142-4.942" fill="#005792" fill-rule="evenodd"/>
            <path id="Fill-261" d="M251.9,285.952a3.5,3.5,0,1,0,.138,4.945,3.508,3.508,0,0,0-.138-4.945" fill="#005792" fill-rule="evenodd"/>
            <path id="Fill-263" d="M269.9,267.956a3.5,3.5,0,1,0,.142,4.946,3.5,3.5,0,0,0-.142-4.946" fill="#005792" fill-rule="evenodd"/>
            <path id="Fill-265" d="M285.9,249.962a3.5,3.5,0,0,0-4.8,5.084,3.5,3.5,0,1,0,4.8-5.084" fill="#005792" fill-rule="evenodd"/>
            <path id="Fill-267" d="M302.908,232.959a3.5,3.5,0,1,0,.133,4.945,3.515,3.515,0,0,0-.133-4.945" fill="#005792" fill-rule="evenodd"/>
            <path id="Fill-269" d="M318.9,214.954a3.5,3.5,0,1,0,.142,4.955,3.5,3.5,0,0,0-.142-4.955" fill="#005792" fill-rule="evenodd"/>
            <path id="Fill-271" d="M336.9,196.954a3.5,3.5,0,1,0,.138,4.953,3.5,3.5,0,0,0-.138-4.953" fill="#005792" fill-rule="evenodd"/>
            <path id="Fill-273" d="M352.906,178.953a3.5,3.5,0,1,0,.143,4.95,3.5,3.5,0,0,0-.143-4.95" fill="#005792" fill-rule="evenodd"/>
            <path id="Fill-275" d="M200.905,369.955a3.5,3.5,0,1,0,.138,4.958,3.5,3.5,0,0,0-.138-4.958" fill="#005792" fill-rule="evenodd"/>
            <path id="Fill-277" d="M218.9,352.955a3.5,3.5,0,1,0,.142,4.945,3.494,3.494,0,0,0-.142-4.945" fill="#005792" fill-rule="evenodd"/>
            <path id="Fill-279" d="M233.908,334.955a3.5,3.5,0,1,0,.138,4.947,3.5,3.5,0,0,0-.138-4.947" fill="#005792" fill-rule="evenodd"/>
            <path id="Fill-281" d="M251.91,316.956a3.5,3.5,0,1,0,.128,4.944,3.524,3.524,0,0,0-.128-4.944" fill="#005792" fill-rule="evenodd"/>
            <path id="Fill-283" d="M267.9,299.957a3.5,3.5,0,1,0,.152,4.945,3.505,3.505,0,0,0-.152-4.945" fill="#005792" fill-rule="evenodd"/>
            <path id="Fill-285" d="M283.9,281.949a3.5,3.5,0,1,0,.142,4.956,3.5,3.5,0,0,0-.142-4.956" fill="#005792" fill-rule="evenodd"/>
            <path id="Fill-287" d="M301.9,263.954a3.5,3.5,0,1,0,.142,4.952,3.491,3.491,0,0,0-.142-4.952" fill="#005792" fill-rule="evenodd"/>
            <path id="Fill-289" d="M317.9,246.95a3.5,3.5,0,1,0,.142,4.956,3.5,3.5,0,0,0-.142-4.956" fill="#005792" fill-rule="evenodd"/>
            <path id="Fill-291" d="M334.9,228.958a3.5,3.5,0,1,0,.133,4.945,3.5,3.5,0,0,0-.133-4.945" fill="#005792" fill-rule="evenodd"/>
            <path id="Fill-293" d="M350.9,210.955a3.5,3.5,0,1,0,.143,4.949,3.5,3.5,0,0,0-.143-4.949" fill="#005792" fill-rule="evenodd"/>
            <path id="Fill-295" d="M368.9,193.955a3.5,3.5,0,1,0,.143,4.952,3.5,3.5,0,0,0-.143-4.952" fill="#005792" fill-rule="evenodd"/>
            <path id="Fill-297" d="M216.906,384.955a3.5,3.5,0,1,0,.133,4.944,3.5,3.5,0,0,0-.133-4.944" fill="#005792" fill-rule="evenodd"/>
            <path id="Fill-299" d="M232.9,366.958a3.5,3.5,0,1,0,.143,4.956,3.483,3.483,0,0,0-.143-4.956" fill="#005792" fill-rule="evenodd"/>
            <path id="Fill-301" d="M249.9,348.955a3.5,3.5,0,1,0,.142,4.947,3.492,3.492,0,0,0-.142-4.947" fill="#005792" fill-rule="evenodd"/>
            <path id="Fill-303" d="M265.906,331.955a3.5,3.5,0,1,0,.137,4.945,3.5,3.5,0,0,0-.137-4.945" fill="#005792" fill-rule="evenodd"/>
            <path id="Fill-305" d="M283.9,313.947a3.5,3.5,0,1,0,.147,4.956,3.5,3.5,0,0,0-.147-4.956" fill="#005792" fill-rule="evenodd"/>
            <path id="Fill-307" d="M299.9,295.954a3.5,3.5,0,1,0,.133,4.955,3.508,3.508,0,0,0-.133-4.955" fill="#005792" fill-rule="evenodd"/>
            <path id="Fill-309" d="M315.906,277.957a3.5,3.5,0,1,0,.138,4.947,3.506,3.506,0,0,0-.138-4.947" fill="#005792" fill-rule="evenodd"/>
            <path id="Fill-311" d="M332.9,260.962a3.5,3.5,0,1,0,.138,4.93,3.5,3.5,0,0,0-.138-4.93" fill="#005792" fill-rule="evenodd"/>
            <path id="Fill-313" d="M348.9,242.948a3.5,3.5,0,1,0,.137,4.951,3.5,3.5,0,0,0-.137-4.951" fill="#005792" fill-rule="evenodd"/>
            <path id="Fill-315" d="M366.907,224.954a3.5,3.5,0,1,0,.133,4.948,3.512,3.512,0,0,0-.133-4.948" fill="#005792" fill-rule="evenodd"/>
            <path id="Fill-317" d="M382.9,207.957a3.5,3.5,0,1,0,.142,4.95,3.488,3.488,0,0,0-.142-4.95" fill="#005792" fill-rule="evenodd"/>
            <path id="Fill-319" d="M230.9,398.955a3.5,3.5,0,1,0,.147,4.947,3.485,3.485,0,0,0-.147-4.947" fill="#005792" fill-rule="evenodd"/>
            <path id="Fill-321" d="M248.9,380.955a3.5,3.5,0,1,0,.142,4.945,3.5,3.5,0,0,0-.142-4.945" fill="#005792" fill-rule="evenodd"/>
            <path id="Fill-323" d="M263.9,362.949a3.5,3.5,0,1,0,.133,4.951,3.5,3.5,0,0,0-.133-4.951" fill="#005792" fill-rule="evenodd"/>
            <path id="Fill-325" d="M281.9,345.957a3.5,3.5,0,1,0,.143,4.948,3.5,3.5,0,0,0-.143-4.948" fill="#005792" fill-rule="evenodd"/>
            <path id="Fill-327" d="M297.9,327.949a3.5,3.5,0,1,0,.143,4.952,3.5,3.5,0,0,0-.143-4.952" fill="#005792" fill-rule="evenodd"/>
            <path id="Fill-329" d="M315.907,309.952a3.5,3.5,0,1,0,.147,4.939,3.487,3.487,0,0,0-.147-4.939" fill="#005792" fill-rule="evenodd"/>
            <path id="Fill-331" d="M331.9,292.961a3.5,3.5,0,1,0,.142,4.949,3.507,3.507,0,0,0-.142-4.949" fill="#005792" fill-rule="evenodd"/>
            <path id="Fill-333" d="M348.906,274.959a3.5,3.5,0,1,0,.133,4.945,3.5,3.5,0,0,0-.133-4.945" fill="#005792" fill-rule="evenodd"/>
            <path id="Fill-335" d="M364.9,256.955a3.5,3.5,0,1,0,.138,4.951,3.5,3.5,0,0,0-.138-4.951" fill="#005792" fill-rule="evenodd"/>
            <path id="Fill-337" d="M380.905,239.958a3.5,3.5,0,1,0,.143,4.949,3.51,3.51,0,0,0-.143-4.949" fill="#005792" fill-rule="evenodd"/>
            <path id="Fill-339" d="M393.951,222.091A3.509,3.509,0,1,0,400,224.506c-.389-.885-.792-1.756-1.2-2.642a3.514,3.514,0,0,0-4.853.226" fill="#005792" fill-rule="evenodd"/>
            <path id="Fill-341" d="M246.824,413.476a3.963,3.963,0,0,0-5.357.145,4.871,4.871,0,0,0-.468.585c2.328.83,4.655,1.57,6.972,2.29a3.419,3.419,0,0,0-1.148-3.02" fill="#005792" fill-rule="evenodd"/>
            <path id="Fill-343" d="M262.9,394.958a3.5,3.5,0,1,0,.142,4.942,3.5,3.5,0,0,0-.142-4.942" fill="#005792" fill-rule="evenodd"/>
            <path id="Fill-345" d="M279.906,377.962a3.5,3.5,0,1,0,.128,4.941,3.5,3.5,0,0,0-.128-4.941" fill="#005792" fill-rule="evenodd"/>
            <path id="Fill-347" d="M295.9,359.95a3.5,3.5,0,1,0,.138,4.955,3.515,3.515,0,0,0-.138-4.955" fill="#005792" fill-rule="evenodd"/>
            <path id="Fill-349" d="M313.9,341.946a3.5,3.5,0,1,0,.143,4.954,3.518,3.518,0,0,0-.143-4.954" fill="#005792" fill-rule="evenodd"/>
            <path id="Fill-351" d="M329.9,323.961a3.5,3.5,0,1,0,.143,4.94,3.492,3.492,0,0,0-.143-4.94" fill="#005792" fill-rule="evenodd"/>
            <path id="Fill-353" d="M347.9,306.956a3.495,3.495,0,1,0,.142,4.939,3.491,3.491,0,0,0-.142-4.939" fill="#005792" fill-rule="evenodd"/>
            <path id="Fill-355" d="M363.9,288.959a3.5,3.5,0,1,0,.147,4.944,3.5,3.5,0,0,0-.147-4.944" fill="#005792" fill-rule="evenodd"/>
            <path id="Fill-357" d="M380.9,270.959a3.5,3.5,0,1,0,.138,4.944,3.492,3.492,0,0,0-.138-4.944" fill="#005792" fill-rule="evenodd"/>
            <path id="Fill-359" d="M396.911,253.957a3.5,3.5,0,1,0,.143,4.946,3.524,3.524,0,0,0-.143-4.946" fill="#005792" fill-rule="evenodd"/>
            <path id="Fill-361" d="M278.9,410.955a3.5,3.5,0,1,0,.143,4.947,3.516,3.516,0,0,0-.143-4.947" fill="#005792" fill-rule="evenodd"/>
            <path id="Fill-363" d="M294.911,392.965a3.5,3.5,0,1,0,.128,4.925,3.5,3.5,0,0,0-.128-4.925" fill="#005792" fill-rule="evenodd"/>
            <path id="Fill-365" d="M311.9,375.955a3.5,3.5,0,1,0,.147,4.943,3.5,3.5,0,0,0-.147-4.943" fill="#005792" fill-rule="evenodd"/>
            <path id="Fill-367" d="M327.9,357.951a3.5,3.5,0,1,0,.142,4.957,3.5,3.5,0,0,0-.142-4.957" fill="#005792" fill-rule="evenodd"/>
            <path id="Fill-369" d="M345.9,338.955a3.5,3.5,0,1,0,.142,4.947,3.5,3.5,0,0,0-.142-4.947" fill="#005792" fill-rule="evenodd"/>
            <path id="Fill-371" d="M361.9,320.957a3.5,3.5,0,1,0,.138,4.945,3.491,3.491,0,0,0-.138-4.945" fill="#005792" fill-rule="evenodd"/>
            <path id="Fill-373" d="M378.9,302.955a3.5,3.5,0,1,0,.138,4.947,3.493,3.493,0,0,0-.138-4.947" fill="#005792" fill-rule="evenodd"/>
            <path id="Fill-375" d="M394.9,285.957a3.5,3.5,0,1,0,.143,4.946,3.5,3.5,0,0,0-.143-4.946" fill="#005792" fill-rule="evenodd"/>
            <path id="Fill-377" d="M406.994,273.067a3.523,3.523,0,0,0,2.1.933c.045-2.373.015-4.7-.07-7a3.527,3.527,0,0,0-2.03,6.067" fill="#005792" fill-rule="evenodd"/>
            <path id="Fill-379" d="M289.938,423.7c1.055,0,2.1-.01,3.125-.065a3.538,3.538,0,0,0-3.125.065" fill="#005792" fill-rule="evenodd"/>
            <path id="Fill-381" d="M309.9,407.963a3.5,3.5,0,1,0,.133,4.947,3.5,3.5,0,0,0-.133-4.947" fill="#005792" fill-rule="evenodd"/>
            <path id="Fill-383" d="M327.911,389.954a3.5,3.5,0,1,0,.133,4.955,3.51,3.51,0,0,0-.133-4.955" fill="#005792" fill-rule="evenodd"/>
            <path id="Fill-385" d="M343.9,371.955a3.5,3.5,0,1,0,.147,4.944,3.5,3.5,0,0,0-.147-4.944" fill="#005792" fill-rule="evenodd"/>
            <path id="Fill-387" d="M359.908,354.955a3.5,3.5,0,1,0,.128,4.947,3.5,3.5,0,0,0-.128-4.947" fill="#005792" fill-rule="evenodd"/>
            <path id="Fill-389" d="M377.9,336.942a3.507,3.507,0,1,0,.133,4.96,3.518,3.518,0,0,0-.133-4.96" fill="#005792" fill-rule="evenodd"/>
            <path id="Fill-391" d="M393.906,318.955a3.5,3.5,0,1,0,.133,4.947,3.5,3.5,0,0,0-.133-4.947" fill="#005792" fill-rule="evenodd"/>
            <path id="Fill-393" d="M406.286,305.594a3,3,0,0,0,.47.406c.4-2.364.75-4.69,1.07-7a3.393,3.393,0,0,0-1.68,1.092,4.157,4.157,0,0,0,.14,5.5" fill="#005792" fill-rule="evenodd"/>
            <path id="Fill-395" d="M336.979,402.268a4.418,4.418,0,0,0,.141,5.715c.005,0,0,0,.005.017,2.025-1.341,3.97-2.738,5.874-4.135a4.2,4.2,0,0,0-.942-1.761,3.316,3.316,0,0,0-5.078.165" fill="#005792" fill-rule="evenodd"/>
            <path id="Fill-397" d="M359.906,385.955a3.5,3.5,0,1,0,.133,4.947,3.5,3.5,0,0,0-.133-4.947" fill="#005792" fill-rule="evenodd"/>
            <path id="Fill-399" d="M371.09,374.045a3.5,3.5,0,1,0-.128-4.947,3.506,3.506,0,0,0,.128,4.947" fill="#005792" fill-rule="evenodd"/>
            <path id="Fill-401" d="M386.9,351.149a3.938,3.938,0,0,0,.134,5.167,3.644,3.644,0,0,0,.93.683c1.073-2.152,2.077-4.3,3.035-6.477a3.063,3.063,0,0,0-4.1.627" fill="#005792" fill-rule="evenodd"/>
          </g>
        </g>
      </g>
    </g>
  </g>
</svg>
