<svg id="Inner-Page" xmlns="http://www.w3.org/2000/svg" width="335.275" height="347.115" viewBox="0 0 335.275 347.115">
  <g id="Services" transform="translate(-1026 -300)">
    <g id="Banner">
      <g id="banner-content" transform="translate(315 197)">
        <g id="Shape-_-abstract-" data-name="Shape-&amp;-abstract-" transform="translate(594 103)">
          <g id="Group" transform="translate(117)">
            <path id="Fill-1" d="M8.113,45.842a2.868,2.868,0,1,0,.109,4.051,2.865,2.865,0,0,0-.109-4.051" fill="#005792" fill-rule="evenodd"/>
            <path id="Fill-3" d="M21.229,31.1a2.867,2.867,0,1,0,.113,4.049,2.866,2.866,0,0,0-.113-4.049" fill="#005792" fill-rule="evenodd"/>
            <path id="Fill-5" d="M35.157,16.349a2.866,2.866,0,1,0,.113,4.055,2.874,2.874,0,0,0-.113-4.055" fill="#005792" fill-rule="evenodd"/>
            <path id="Fill-7" d="M49.855,6.451a2.679,2.679,0,0,0,.954-1.524c-1.934.586-3.843,1.2-5.737,1.888a4.347,4.347,0,0,0,4.782-.365" fill="#005792" fill-rule="evenodd"/>
            <path id="Fill-9" d="M6.481,71.238a2.871,2.871,0,1,0,.113,4.053,2.86,2.86,0,0,0-.113-4.053" fill="#005792" fill-rule="evenodd"/>
            <path id="Fill-11" d="M19.587,57.3a2.87,2.87,0,1,0,.113,4.06,2.869,2.869,0,0,0-.113-4.06" fill="#005792" fill-rule="evenodd"/>
            <path id="Fill-13" d="M34.335,42.563a2.87,2.87,0,1,0,.117,4.055,2.866,2.866,0,0,0-.117-4.055" fill="#005792" fill-rule="evenodd"/>
            <path id="Fill-15" d="M47.453,27.812a2.87,2.87,0,1,0,.113,4.063,2.878,2.878,0,0,0-.113-4.063" fill="#005792" fill-rule="evenodd"/>
            <path id="Fill-17" d="M61.383,13.9a2.866,2.866,0,1,0,.121,4.048,2.868,2.868,0,0,0-.121-4.048" fill="#005792" fill-rule="evenodd"/>
            <path id="Fill-19" d="M70.551,3.343a2.96,2.96,0,0,0,4.061-.108A2.631,2.631,0,0,0,75.019.006c-1.7-.023-3.394.019-5.071.151a2.644,2.644,0,0,0,.6,3.186" fill="#005792" fill-rule="evenodd"/>
            <path id="Fill-21" d="M4.839,97.455a2.869,2.869,0,1,0,.117,4.055,2.871,2.871,0,0,0-.117-4.055" fill="#005792" fill-rule="evenodd"/>
            <path id="Fill-23" d="M19.59,83.53a2.869,2.869,0,1,0,.117,4.048,2.867,2.867,0,0,0-.117-4.048" fill="#005792" fill-rule="evenodd"/>
            <path id="Fill-25" d="M32.7,68.781a2.87,2.87,0,1,0,.109,4.054,2.87,2.87,0,0,0-.109-4.054" fill="#005792" fill-rule="evenodd"/>
            <path id="Fill-27" d="M47.45,54.03a2.87,2.87,0,1,0,.117,4.062,2.871,2.871,0,0,0-.117-4.062" fill="#005792" fill-rule="evenodd"/>
            <path id="Fill-29" d="M59.753,40.1a2.873,2.873,0,1,0,.109,4.061,2.875,2.875,0,0,0-.109-4.061" fill="#005792" fill-rule="evenodd"/>
            <path id="Fill-31" d="M72.86,25.362a2.868,2.868,0,1,0,.109,4.052,2.872,2.872,0,0,0-.109-4.052" fill="#005792" fill-rule="evenodd"/>
            <path id="Fill-33" d="M87.609,10.615a2.87,2.87,0,1,0,.109,4.05,2.862,2.862,0,0,0-.109-4.05" fill="#005792" fill-rule="evenodd"/>
            <path id="Fill-35" d="M17.945,108.927a2.866,2.866,0,1,0,.121,4.047,2.853,2.853,0,0,0-.121-4.047" fill="#005792" fill-rule="evenodd"/>
            <path id="Fill-37" d="M31.058,95a2.863,2.863,0,1,0,.117,4.051A2.863,2.863,0,0,0,31.058,95" fill="#005792" fill-rule="evenodd"/>
            <path id="Fill-39" d="M45.809,80.243a2.872,2.872,0,1,0,.117,4.055,2.872,2.872,0,0,0-.117-4.055" fill="#005792" fill-rule="evenodd"/>
            <path id="Fill-41" d="M58.922,65.5a2.866,2.866,0,1,0,.113,4.057,2.863,2.863,0,0,0-.113-4.057" fill="#005792" fill-rule="evenodd"/>
            <path id="Fill-43" d="M72.855,51.585a2.865,2.865,0,1,0,.117,4.038,2.861,2.861,0,0,0-.117-4.038" fill="#005792" fill-rule="evenodd"/>
            <path id="Fill-45" d="M85.974,36.83a2.87,2.87,0,1,0,.109,4.056,2.876,2.876,0,0,0-.109-4.056" fill="#005792" fill-rule="evenodd"/>
            <path id="Fill-47" d="M99.085,22.086a2.867,2.867,0,1,0,.117,4.052,2.865,2.865,0,0,0-.117-4.052" fill="#005792" fill-rule="evenodd"/>
            <path id="Fill-49" d="M110.106,12.9a4.293,4.293,0,0,0,4.625.221c-.952-.545-1.867-1.1-2.87-1.663-.911-.5-1.847-.938-2.748-1.4a2.543,2.543,0,0,0,.992,2.839" fill="#005792" fill-rule="evenodd"/>
            <path id="Fill-51" d="M29.423,121.215a2.866,2.866,0,1,0,.117,4.055,2.879,2.879,0,0,0-.117-4.055" fill="#005792" fill-rule="evenodd"/>
            <path id="Fill-53" d="M44.169,106.464a2.868,2.868,0,1,0,.117,4.049,2.872,2.872,0,0,0-.117-4.049" fill="#005792" fill-rule="evenodd"/>
            <path id="Fill-55" d="M57.285,91.721a2.868,2.868,0,1,0,.113,4.059,2.864,2.864,0,0,0-.113-4.059" fill="#005792" fill-rule="evenodd"/>
            <path id="Fill-57" d="M72.041,77.794a2.869,2.869,0,1,0,.117,4.055,2.87,2.87,0,0,0-.117-4.055" fill="#005792" fill-rule="evenodd"/>
            <path id="Fill-59" d="M85.15,63.046a2.867,2.867,0,1,0,.113,4.051,2.872,2.872,0,0,0-.113-4.051" fill="#005792" fill-rule="evenodd"/>
            <path id="Fill-61" d="M99.084,48.3a2.869,2.869,0,1,0,.109,4.053,2.865,2.865,0,0,0-.109-4.053" fill="#005792" fill-rule="evenodd"/>
            <path id="Fill-63" d="M112.2,34.375a2.868,2.868,0,1,0,.109,4.05,2.861,2.861,0,0,0-.109-4.05" fill="#005792" fill-rule="evenodd"/>
            <path id="Fill-65" d="M121.446,25.336a3.042,3.042,0,0,0,4.4-.131,3.36,3.36,0,0,0,.354-.48c-1.4-1.395-2.944-2.812-4.562-4.243a3.334,3.334,0,0,0-.319.294,3.3,3.3,0,0,0,.122,4.56" fill="#005792" fill-rule="evenodd"/>
            <path id="Fill-67" d="M42.542,134.323a2.87,2.87,0,1,0,.1,4.052,2.879,2.879,0,0,0-.1-4.052" fill="#005792" fill-rule="evenodd"/>
            <path id="Fill-69" d="M55.647,119.575a2.868,2.868,0,1,0,.117,4.05,2.864,2.864,0,0,0-.117-4.05" fill="#005792" fill-rule="evenodd"/>
            <path id="Fill-71" d="M70.4,104.827a2.868,2.868,0,1,0,.113,4.052,2.858,2.858,0,0,0-.113-4.052" fill="#005792" fill-rule="evenodd"/>
            <path id="Fill-73" d="M83.509,90.084a2.867,2.867,0,1,0,.113,4.048,2.868,2.868,0,0,0-.113-4.048" fill="#005792" fill-rule="evenodd"/>
            <path id="Fill-75" d="M97.44,76.148a2.871,2.871,0,1,0,.117,4.066,2.874,2.874,0,0,0-.117-4.066" fill="#005792" fill-rule="evenodd"/>
            <path id="Fill-77" d="M110.554,59.771a2.868,2.868,0,1,0,.117,4.051,2.872,2.872,0,0,0-.117-4.051" fill="#005792" fill-rule="evenodd"/>
            <path id="Fill-79" d="M125.306,45.84a2.869,2.869,0,1,0,.1,4.06,2.868,2.868,0,0,0-.1-4.06" fill="#005792" fill-rule="evenodd"/>
            <path id="Fill-81" d="M134.476,36.756a2.518,2.518,0,0,0,3.2.6c-.994-1.766-2.12-3.581-3.363-5.4a3.958,3.958,0,0,0,.161,4.805" fill="#005792" fill-rule="evenodd"/>
            <path id="Fill-83" d="M55.644,145.8a2.864,2.864,0,1,0,.121,4.049,2.855,2.855,0,0,0-.121-4.049" fill="#005792" fill-rule="evenodd"/>
            <path id="Fill-85" d="M68.759,131.044a2.869,2.869,0,1,0,.113,4.048,2.865,2.865,0,0,0-.113-4.048" fill="#005792" fill-rule="evenodd"/>
            <path id="Fill-87" d="M81.876,116.3a2.87,2.87,0,1,0,.113,4.064,2.868,2.868,0,0,0-.113-4.064" fill="#005792" fill-rule="evenodd"/>
            <path id="Fill-89" d="M96.629,102.369a2.871,2.871,0,1,0,.1,4.05,2.877,2.877,0,0,0-.1-4.05" fill="#005792" fill-rule="evenodd"/>
            <path id="Fill-91" d="M109.739,87.618a2.872,2.872,0,1,0,.117,4.056,2.884,2.884,0,0,0-.117-4.056" fill="#005792" fill-rule="evenodd"/>
            <path id="Fill-93" d="M123.672,72.874a2.871,2.871,0,1,0,.109,4.057,2.879,2.879,0,0,0-.109-4.057" fill="#005792" fill-rule="evenodd"/>
            <path id="Fill-95" d="M136.782,58.951a2.865,2.865,0,1,0-3.942,4.159,2.865,2.865,0,1,0,3.942-4.159" fill="#005792" fill-rule="evenodd"/>
            <path id="Fill-97" d="M67.12,157.253a2.873,2.873,0,1,0,.109,4.057,2.881,2.881,0,0,0-.109-4.057" fill="#005792" fill-rule="evenodd"/>
            <path id="Fill-99" d="M81.873,142.512a2.868,2.868,0,1,0,.113,4.054,2.871,2.871,0,0,0-.113-4.054" fill="#005792" fill-rule="evenodd"/>
            <path id="Fill-101" d="M94.985,127.766a2.871,2.871,0,1,0,.113,4.052,2.866,2.866,0,0,0-.113-4.052" fill="#005792" fill-rule="evenodd"/>
            <path id="Fill-103" d="M109.737,113.839a2.869,2.869,0,1,0,.113,4.056,2.865,2.865,0,0,0-.113-4.056" fill="#005792" fill-rule="evenodd"/>
            <path id="Fill-105" d="M122.851,99.094a2.869,2.869,0,1,0,.109,4.051,2.862,2.862,0,0,0-.109-4.051" fill="#005792" fill-rule="evenodd"/>
            <path id="Fill-107" d="M135.145,84.349a2.868,2.868,0,1,0,.109,4.051,2.89,2.89,0,0,0-.109-4.051" fill="#005792" fill-rule="evenodd"/>
            <path id="Fill-109" d="M146.019,70.52a2.855,2.855,0,0,0,.119,4.073,2.937,2.937,0,0,0,2.844.655c-.2-1.763-.348-3.628-.516-5.593a2.932,2.932,0,0,0-2.446.865" fill="#005792" fill-rule="evenodd"/>
            <path id="Fill-111" d="M80.234,168.728a2.871,2.871,0,1,0,.117,4.048,2.867,2.867,0,0,0-.117-4.048" fill="#005792" fill-rule="evenodd"/>
            <path id="Fill-113" d="M93.344,153.981a2.869,2.869,0,1,0,.117,4.056,2.869,2.869,0,0,0-.117-4.056" fill="#005792" fill-rule="evenodd"/>
            <path id="Fill-115" d="M108.1,140.059a2.868,2.868,0,1,0,.109,4.049,2.87,2.87,0,0,0-.109-4.049" fill="#005792" fill-rule="evenodd"/>
            <path id="Fill-117" d="M121.209,125.3a2.872,2.872,0,1,0,.113,4.06,2.876,2.876,0,0,0-.113-4.06" fill="#005792" fill-rule="evenodd"/>
            <path id="Fill-119" d="M135.137,110.567a2.867,2.867,0,1,0,.113,4.05,2.865,2.865,0,0,0-.113-4.05" fill="#005792" fill-rule="evenodd"/>
            <path id="Fill-121" d="M148.255,96.637a2.871,2.871,0,1,0,.113,4.046,2.869,2.869,0,0,0-.113-4.046" fill="#005792" fill-rule="evenodd"/>
            <path id="Fill-123" d="M91.707,180.2a2.867,2.867,0,1,0,.113,4.057,2.862,2.862,0,0,0-.113-4.057" fill="#005792" fill-rule="evenodd"/>
            <path id="Fill-125" d="M106.46,165.452a2.869,2.869,0,1,0,.117,4.056,2.865,2.865,0,0,0-.117-4.056" fill="#005792" fill-rule="evenodd"/>
            <path id="Fill-127" d="M119.567,151.52a2.872,2.872,0,1,0,.117,4.055,2.881,2.881,0,0,0-.117-4.055" fill="#005792" fill-rule="evenodd"/>
            <path id="Fill-129" d="M134.322,136.781a2.869,2.869,0,1,0,.113,4.05,2.865,2.865,0,0,0-.113-4.05" fill="#005792" fill-rule="evenodd"/>
            <path id="Fill-131" d="M147.435,122.033a2.866,2.866,0,1,0,.109,4.052,2.876,2.876,0,0,0-.109-4.052" fill="#005792" fill-rule="evenodd"/>
            <path id="Fill-133" d="M161.368,108.1a2.868,2.868,0,1,0,.109,4.052,2.883,2.883,0,0,0-.109-4.052" fill="#005792" fill-rule="evenodd"/>
            <path id="Fill-135" d="M172.87,98.318c-.8-.27-1.594-.553-2.364-.852.025.029.049.061.074.086a2.881,2.881,0,0,0,2.291.766" fill="#005792" fill-rule="evenodd"/>
            <path id="Fill-137" d="M104.821,191.67a2.87,2.87,0,1,0,.117,4.047,2.864,2.864,0,0,0-.117-4.047" fill="#005792" fill-rule="evenodd"/>
            <path id="Fill-139" d="M117.935,177.741a2.87,2.87,0,1,0,.109,4.052,2.876,2.876,0,0,0-.109-4.052" fill="#005792" fill-rule="evenodd"/>
            <path id="Fill-141" d="M132.688,163a2.868,2.868,0,1,0,.1,4.049,2.868,2.868,0,0,0-.1-4.049" fill="#005792" fill-rule="evenodd"/>
            <path id="Fill-143" d="M145.795,148.248a2.87,2.87,0,1,0,.113,4.052,2.863,2.863,0,0,0-.113-4.052" fill="#005792" fill-rule="evenodd"/>
            <path id="Fill-145" d="M160.549,134.321a2.868,2.868,0,1,0,.1,4.057,2.888,2.888,0,0,0-.1-4.057" fill="#005792" fill-rule="evenodd"/>
            <path id="Fill-147" d="M172.839,119.581a2.867,2.867,0,1,0,.117,4.038,2.872,2.872,0,0,0-.117-4.038" fill="#005792" fill-rule="evenodd"/>
            <path id="Fill-149" d="M187.586,104.829a2.864,2.864,0,1,0,.117,4.056,2.859,2.859,0,0,0-.117-4.056" fill="#005792" fill-rule="evenodd"/>
            <path id="Fill-151" d="M104.722,221.942a2.464,2.464,0,0,0-.148-4.058,4.448,4.448,0,0,0-4.593-.274c.553,1.714,1.121,3.445,1.674,5.207a4.26,4.26,0,0,0,3.067-.875" fill="#005792" fill-rule="evenodd"/>
            <path id="Fill-153" d="M117.933,203.137a2.87,2.87,0,1,0,.113,4.056,2.872,2.872,0,0,0-.113-4.056" fill="#005792" fill-rule="evenodd"/>
            <path id="Fill-155" d="M131.048,189.211a2.869,2.869,0,1,0,.109,4.054,2.872,2.872,0,0,0-.109-4.054" fill="#005792" fill-rule="evenodd"/>
            <path id="Fill-157" d="M144.157,174.464a2.869,2.869,0,1,0,.109,4.052,2.876,2.876,0,0,0-.109-4.052" fill="#005792" fill-rule="evenodd"/>
            <path id="Fill-159" d="M158.911,159.716a2.871,2.871,0,1,0,.109,4.06,2.869,2.869,0,0,0-.109-4.06" fill="#005792" fill-rule="evenodd"/>
            <path id="Fill-161" d="M172.025,145.792a2.867,2.867,0,1,0,.109,4.047,2.881,2.881,0,0,0-.109-4.047" fill="#005792" fill-rule="evenodd"/>
            <path id="Fill-163" d="M185.953,131.05a2.867,2.867,0,1,0,.113,4.051,2.86,2.86,0,0,0-.113-4.051" fill="#005792" fill-rule="evenodd"/>
            <path id="Fill-165" d="M199.06,116.3a2.87,2.87,0,1,0,.117,4.05,2.865,2.865,0,0,0-.117-4.05" fill="#005792" fill-rule="evenodd"/>
            <path id="Fill-167" d="M213.073,106.112c-1.367-.233-2.734-.471-4.1-.692a3.055,3.055,0,0,0,.436.557,2.689,2.689,0,0,0,3.661.135" fill="#005792" fill-rule="evenodd"/>
            <path id="Fill-169" d="M116.3,229.353a2.868,2.868,0,1,0,.109,4.059,2.873,2.873,0,0,0-.109-4.059" fill="#005792" fill-rule="evenodd"/>
            <path id="Fill-171" d="M129.4,215.427a2.867,2.867,0,1,0,.117,4.048,2.878,2.878,0,0,0-.117-4.048" fill="#005792" fill-rule="evenodd"/>
            <path id="Fill-173" d="M144.152,200.676a2.867,2.867,0,1,0,.117,4.056,2.875,2.875,0,0,0-.117-4.056" fill="#005792" fill-rule="evenodd"/>
            <path id="Fill-175" d="M157.27,185.927a2.873,2.873,0,1,0,.113,4.06,2.89,2.89,0,0,0-.113-4.06" fill="#005792" fill-rule="evenodd"/>
            <path id="Fill-177" d="M170.378,172a2.869,2.869,0,1,0,.113,4.055,2.877,2.877,0,0,0-.113-4.055" fill="#005792" fill-rule="evenodd"/>
            <path id="Fill-179" d="M185.126,157.258a2.866,2.866,0,1,0,.117,4.055,2.861,2.861,0,0,0-.117-4.055" fill="#005792" fill-rule="evenodd"/>
            <path id="Fill-181" d="M198.243,142.513a2.867,2.867,0,1,0,.117,4.056,2.866,2.866,0,0,0-.117-4.056" fill="#005792" fill-rule="evenodd"/>
            <path id="Fill-183" d="M212.177,127.767a2.87,2.87,0,1,0,.117,4.05,2.861,2.861,0,0,0-.117-4.05" fill="#005792" fill-rule="evenodd"/>
            <path id="Fill-185" d="M225.288,113.841a2.868,2.868,0,1,0,.117,4.051,2.882,2.882,0,0,0-.117-4.051" fill="#005792" fill-rule="evenodd"/>
            <path id="Fill-187" d="M115.513,261.267a2.694,2.694,0,0,0-.129-4.055,3.374,3.374,0,0,0-4.466.117,1.906,1.906,0,0,0-.284.331c.533,1.483,1.07,2.946,1.638,4.365a3.35,3.35,0,0,0,3.241-.758" fill="#005792" fill-rule="evenodd"/>
            <path id="Fill-189" d="M128.592,242.461a2.87,2.87,0,1,0,.1,4.053,2.873,2.873,0,0,0-.1-4.053" fill="#005792" fill-rule="evenodd"/>
            <path id="Fill-191" d="M142.512,227.712a2.87,2.87,0,1,0,.117,4.057,2.872,2.872,0,0,0-.117-4.057" fill="#005792" fill-rule="evenodd"/>
            <path id="Fill-193" d="M155.629,213.792a2.87,2.87,0,1,0,.113,4.046,2.862,2.862,0,0,0-.113-4.046" fill="#005792" fill-rule="evenodd"/>
            <path id="Fill-195" d="M170.381,199.044a2.868,2.868,0,1,0,.113,4.056,2.859,2.859,0,0,0-.113-4.056" fill="#005792" fill-rule="evenodd"/>
            <path id="Fill-197" d="M183.495,184.294a2.868,2.868,0,1,0,.113,4.063,2.878,2.878,0,0,0-.113-4.063" fill="#005792" fill-rule="evenodd"/>
            <path id="Fill-199" d="M198.235,168.728a2.866,2.866,0,1,0,.117,4.048,2.865,2.865,0,0,0-.117-4.048" fill="#005792" fill-rule="evenodd"/>
            <path id="Fill-201" d="M210.536,153.982a2.869,2.869,0,1,0,.117,4.053,2.868,2.868,0,0,0-.117-4.053" fill="#005792" fill-rule="evenodd"/>
            <path id="Fill-203" d="M223.653,140.058a2.869,2.869,0,1,0,.109,4.047,2.867,2.867,0,0,0-.109-4.047" fill="#005792" fill-rule="evenodd"/>
            <path id="Fill-205" d="M238.4,125.308a2.866,2.866,0,1,0,.117,4.053,2.859,2.859,0,0,0-.117-4.053" fill="#005792" fill-rule="evenodd"/>
            <path id="Fill-207" d="M250.771,115.6c-1.366-.524-2.736-1.02-4.1-1.487a2.824,2.824,0,0,0,.691,1.2,2.614,2.614,0,0,0,3.407.291" fill="#005792" fill-rule="evenodd"/>
            <path id="Fill-209" d="M126.951,268.683a2.869,2.869,0,1,0,.113,4.047,2.875,2.875,0,0,0-.113-4.047" fill="#005792" fill-rule="evenodd"/>
            <path id="Fill-211" d="M141.695,253.94a2.865,2.865,0,1,0,.117,4.045,2.862,2.862,0,0,0-.117-4.045" fill="#005792" fill-rule="evenodd"/>
            <path id="Fill-213" d="M153.991,240a2.872,2.872,0,1,0,.113,4.064,2.868,2.868,0,0,0-.113-4.064" fill="#005792" fill-rule="evenodd"/>
            <path id="Fill-215" d="M168.742,225.253a2.872,2.872,0,1,0,.113,4.063,2.875,2.875,0,0,0-.113-4.063" fill="#005792" fill-rule="evenodd"/>
            <path id="Fill-217" d="M181.857,210.508a2.87,2.87,0,1,0,.109,4.061,2.862,2.862,0,0,0-.109-4.061" fill="#005792" fill-rule="evenodd"/>
            <path id="Fill-219" d="M196.611,196.583a2.869,2.869,0,1,0,.109,4.054,2.881,2.881,0,0,0-.109-4.054" fill="#005792" fill-rule="evenodd"/>
            <path id="Fill-221" d="M209.714,181.834a2.869,2.869,0,1,0,.113,4.054,2.868,2.868,0,0,0-.113-4.054" fill="#005792" fill-rule="evenodd"/>
            <path id="Fill-223" d="M223.645,167.091a2.868,2.868,0,1,0,.117,4.052,2.865,2.865,0,0,0-.117-4.052" fill="#005792" fill-rule="evenodd"/>
            <path id="Fill-225" d="M236.762,153.169a2.865,2.865,0,1,0,.109,4.047,2.867,2.867,0,0,0-.109-4.047" fill="#005792" fill-rule="evenodd"/>
            <path id="Fill-227" d="M249.875,138.423a2.865,2.865,0,1,0,.109,4.036,2.869,2.869,0,0,0-.109-4.036" fill="#005792" fill-rule="evenodd"/>
            <path id="Fill-229" d="M264.618,123.669a2.868,2.868,0,1,0,.117,4.054,2.861,2.861,0,0,0-.117-4.054" fill="#005792" fill-rule="evenodd"/>
            <path id="Fill-231" d="M140.052,280.146a2.871,2.871,0,1,0,.125,4.06,2.872,2.872,0,0,0-.125-4.06" fill="#005792" fill-rule="evenodd"/>
            <path id="Fill-233" d="M153.166,265.409a2.863,2.863,0,1,0,.117,4.034,2.854,2.854,0,0,0-.117-4.034" fill="#005792" fill-rule="evenodd"/>
            <path id="Fill-235" d="M167.1,251.466a2.868,2.868,0,1,0,.117,4.067,2.88,2.88,0,0,0-.117-4.067" fill="#005792" fill-rule="evenodd"/>
            <path id="Fill-237" d="M180.215,236.727a2.87,2.87,0,1,0,.113,4.054,2.868,2.868,0,0,0-.113-4.054" fill="#005792" fill-rule="evenodd"/>
            <path id="Fill-239" d="M194.967,221.979a2.87,2.87,0,1,0,.109,4.057,2.876,2.876,0,0,0-.109-4.057" fill="#005792" fill-rule="evenodd"/>
            <path id="Fill-241" d="M208.077,208.054a2.867,2.867,0,1,0,.117,4.05,2.867,2.867,0,0,0-.117-4.05" fill="#005792" fill-rule="evenodd"/>
            <path id="Fill-243" d="M222.825,193.3a2.865,2.865,0,1,0,.121,4.049,2.87,2.87,0,0,0-.121-4.049" fill="#005792" fill-rule="evenodd"/>
            <path id="Fill-245" d="M235.117,178.568a2.863,2.863,0,1,0,.121,4.047,2.858,2.858,0,0,0-.121-4.047" fill="#005792" fill-rule="evenodd"/>
            <path id="Fill-247" d="M249.873,164.635a2.866,2.866,0,1,0,.117,4.052,2.858,2.858,0,0,0-.117-4.052" fill="#005792" fill-rule="evenodd"/>
            <path id="Fill-249" d="M262.983,149.884a2.866,2.866,0,1,0,.117,4.056,2.865,2.865,0,0,0-.117-4.056" fill="#005792" fill-rule="evenodd"/>
            <path id="Fill-251" d="M277.732,135.137a2.871,2.871,0,1,0,.113,4.054,2.87,2.87,0,0,0-.113-4.054" fill="#005792" fill-rule="evenodd"/>
            <path id="Fill-253" d="M153.174,291.612a2.868,2.868,0,1,0,.113,4.06,2.888,2.888,0,0,0-.113-4.06" fill="#005792" fill-rule="evenodd"/>
            <path id="Fill-255" d="M166.276,277.688a2.868,2.868,0,1,0,.117,4.062,2.861,2.861,0,0,0-.117-4.062" fill="#005792" fill-rule="evenodd"/>
            <path id="Fill-257" d="M179.393,262.941a2.871,2.871,0,1,0,.113,4.046,2.872,2.872,0,0,0-.113-4.046" fill="#005792" fill-rule="evenodd"/>
            <path id="Fill-259" d="M193.324,248.2a2.867,2.867,0,1,0,.117,4.049,2.862,2.862,0,0,0-.117-4.049" fill="#005792" fill-rule="evenodd"/>
            <path id="Fill-261" d="M206.436,234.266a2.869,2.869,0,1,0,.113,4.051,2.876,2.876,0,0,0-.113-4.051" fill="#005792" fill-rule="evenodd"/>
            <path id="Fill-263" d="M221.187,219.523a2.866,2.866,0,1,0,.117,4.052,2.866,2.866,0,0,0-.117-4.052" fill="#005792" fill-rule="evenodd"/>
            <path id="Fill-265" d="M234.3,204.781a2.866,2.866,0,0,0-3.937,4.165,2.866,2.866,0,1,0,3.937-4.165" fill="#005792" fill-rule="evenodd"/>
            <path id="Fill-267" d="M248.237,190.851a2.866,2.866,0,1,0,.109,4.051,2.881,2.881,0,0,0-.109-4.051" fill="#005792" fill-rule="evenodd"/>
            <path id="Fill-269" d="M261.341,176.1a2.868,2.868,0,1,0,.117,4.06,2.867,2.867,0,0,0-.117-4.06" fill="#005792" fill-rule="evenodd"/>
            <path id="Fill-271" d="M276.094,161.354a2.866,2.866,0,1,0,.113,4.057,2.871,2.871,0,0,0-.113-4.057" fill="#005792" fill-rule="evenodd"/>
            <path id="Fill-273" d="M289.211,146.607a2.87,2.87,0,1,0,.117,4.056,2.871,2.871,0,0,0-.117-4.056" fill="#005792" fill-rule="evenodd"/>
            <path id="Fill-275" d="M164.644,303.085a2.867,2.867,0,1,0,.113,4.062,2.87,2.87,0,0,0-.113-4.062" fill="#005792" fill-rule="evenodd"/>
            <path id="Fill-277" d="M179.394,289.158a2.867,2.867,0,1,0,.117,4.051,2.864,2.864,0,0,0-.117-4.051" fill="#005792" fill-rule="evenodd"/>
            <path id="Fill-279" d="M191.69,274.412a2.87,2.87,0,1,0,.113,4.053,2.871,2.871,0,0,0-.113-4.053" fill="#005792" fill-rule="evenodd"/>
            <path id="Fill-281" d="M206.443,259.666a2.87,2.87,0,1,0,.1,4.05,2.889,2.889,0,0,0-.1-4.05" fill="#005792" fill-rule="evenodd"/>
            <path id="Fill-283" d="M219.544,245.739a2.867,2.867,0,1,0,.125,4.052,2.873,2.873,0,0,0-.125-4.052" fill="#005792" fill-rule="evenodd"/>
            <path id="Fill-285" d="M232.659,230.986a2.866,2.866,0,1,0,.117,4.061,2.867,2.867,0,0,0-.117-4.061" fill="#005792" fill-rule="evenodd"/>
            <path id="Fill-287" d="M247.412,216.244a2.867,2.867,0,1,0,.117,4.057,2.862,2.862,0,0,0-.117-4.057" fill="#005792" fill-rule="evenodd"/>
            <path id="Fill-289" d="M260.522,202.313a2.87,2.87,0,1,0,.117,4.06,2.868,2.868,0,0,0-.117-4.06" fill="#005792" fill-rule="evenodd"/>
            <path id="Fill-291" d="M274.457,187.573a2.865,2.865,0,1,0,.109,4.052,2.867,2.867,0,0,0-.109-4.052" fill="#005792" fill-rule="evenodd"/>
            <path id="Fill-293" d="M287.567,172.824a2.866,2.866,0,1,0,.117,4.054,2.868,2.868,0,0,0-.117-4.054" fill="#005792" fill-rule="evenodd"/>
            <path id="Fill-295" d="M302.321,158.9a2.867,2.867,0,1,0,.117,4.057,2.868,2.868,0,0,0-.117-4.057" fill="#005792" fill-rule="evenodd"/>
            <path id="Fill-297" d="M177.757,315.374a2.868,2.868,0,1,0,.109,4.05,2.869,2.869,0,0,0-.109-4.05" fill="#005792" fill-rule="evenodd"/>
            <path id="Fill-299" d="M190.863,300.63a2.866,2.866,0,1,0,.117,4.06,2.855,2.855,0,0,0-.117-4.06" fill="#005792" fill-rule="evenodd"/>
            <path id="Fill-301" d="M204.8,285.881a2.867,2.867,0,1,0,.117,4.053,2.863,2.863,0,0,0-.117-4.053" fill="#005792" fill-rule="evenodd"/>
            <path id="Fill-303" d="M217.913,271.954a2.867,2.867,0,1,0,.113,4.051,2.87,2.87,0,0,0-.113-4.051" fill="#005792" fill-rule="evenodd"/>
            <path id="Fill-305" d="M232.66,257.2a2.87,2.87,0,1,0,.121,4.06,2.869,2.869,0,0,0-.121-4.06" fill="#005792" fill-rule="evenodd"/>
            <path id="Fill-307" d="M245.775,242.46a2.87,2.87,0,1,0,.109,4.059,2.875,2.875,0,0,0-.109-4.059" fill="#005792" fill-rule="evenodd"/>
            <path id="Fill-309" d="M258.888,227.716a2.869,2.869,0,1,0,.113,4.053,2.874,2.874,0,0,0-.113-4.053" fill="#005792" fill-rule="evenodd"/>
            <path id="Fill-311" d="M272.817,213.793a2.867,2.867,0,1,0,.113,4.039,2.868,2.868,0,0,0-.113-4.039" fill="#005792" fill-rule="evenodd"/>
            <path id="Fill-313" d="M285.93,199.035a2.871,2.871,0,1,0,.113,4.056,2.871,2.871,0,0,0-.113-4.056" fill="#005792" fill-rule="evenodd"/>
            <path id="Fill-315" d="M300.685,184.293a2.87,2.87,0,1,0,.109,4.054,2.879,2.879,0,0,0-.109-4.054" fill="#005792" fill-rule="evenodd"/>
            <path id="Fill-317" d="M313.792,170.368a2.868,2.868,0,1,0,.117,4.055,2.859,2.859,0,0,0-.117-4.055" fill="#005792" fill-rule="evenodd"/>
            <path id="Fill-319" d="M189.224,326.844a2.867,2.867,0,1,0,.121,4.053,2.857,2.857,0,0,0-.121-4.053" fill="#005792" fill-rule="evenodd"/>
            <path id="Fill-321" d="M203.979,312.1a2.869,2.869,0,1,0,.117,4.051,2.872,2.872,0,0,0-.117-4.051" fill="#005792" fill-rule="evenodd"/>
            <path id="Fill-323" d="M216.273,297.346a2.871,2.871,0,1,0,.109,4.056,2.865,2.865,0,0,0-.109-4.056" fill="#005792" fill-rule="evenodd"/>
            <path id="Fill-325" d="M231.023,283.425a2.87,2.87,0,1,0,.117,4.054,2.871,2.871,0,0,0-.117-4.054" fill="#005792" fill-rule="evenodd"/>
            <path id="Fill-327" d="M244.136,268.672a2.87,2.87,0,1,0,.117,4.057,2.869,2.869,0,0,0-.117-4.057" fill="#005792" fill-rule="evenodd"/>
            <path id="Fill-329" d="M258.89,253.928a2.872,2.872,0,1,0,.121,4.046,2.858,2.858,0,0,0-.121-4.046" fill="#005792" fill-rule="evenodd"/>
            <path id="Fill-331" d="M272,240.008a2.867,2.867,0,1,0,.117,4.055,2.875,2.875,0,0,0-.117-4.055" fill="#005792" fill-rule="evenodd"/>
            <path id="Fill-333" d="M285.933,225.26a2.87,2.87,0,1,0,.109,4.051,2.869,2.869,0,0,0-.109-4.051" fill="#005792" fill-rule="evenodd"/>
            <path id="Fill-335" d="M299.043,210.51a2.868,2.868,0,1,0,.113,4.056,2.869,2.869,0,0,0-.113-4.056" fill="#005792" fill-rule="evenodd"/>
            <path id="Fill-337" d="M312.157,196.586a2.87,2.87,0,1,0,.117,4.054,2.877,2.877,0,0,0-.117-4.054" fill="#005792" fill-rule="evenodd"/>
            <path id="Fill-339" d="M322.848,181.947a2.875,2.875,0,1,0,4.957,1.979c-.319-.725-.649-1.439-.98-2.164a2.88,2.88,0,0,0-3.977.185" fill="#005792" fill-rule="evenodd"/>
            <path id="Fill-341" d="M202.275,338.74a3.249,3.249,0,0,0-4.39.119,3.993,3.993,0,0,0-.383.479c1.907.68,3.815,1.286,5.714,1.876a2.8,2.8,0,0,0-.941-2.474" fill="#005792" fill-rule="evenodd"/>
            <path id="Fill-343" d="M215.452,323.569a2.869,2.869,0,1,0,.117,4.049,2.867,2.867,0,0,0-.117-4.049" fill="#005792" fill-rule="evenodd"/>
            <path id="Fill-345" d="M229.387,309.645a2.868,2.868,0,1,0,.1,4.048,2.871,2.871,0,0,0-.1-4.048" fill="#005792" fill-rule="evenodd"/>
            <path id="Fill-347" d="M242.495,294.889a2.868,2.868,0,1,0,.113,4.059,2.881,2.881,0,0,0-.113-4.059" fill="#005792" fill-rule="evenodd"/>
            <path id="Fill-349" d="M257.244,280.139a2.871,2.871,0,1,0,.117,4.059,2.884,2.884,0,0,0-.117-4.059" fill="#005792" fill-rule="evenodd"/>
            <path id="Fill-351" d="M270.356,265.4a2.865,2.865,0,1,0,.117,4.047,2.863,2.863,0,0,0-.117-4.047" fill="#005792" fill-rule="evenodd"/>
            <path id="Fill-353" d="M285.1,251.473a2.863,2.863,0,1,0,.117,4.046,2.861,2.861,0,0,0-.117-4.046" fill="#005792" fill-rule="evenodd"/>
            <path id="Fill-355" d="M298.221,236.729a2.867,2.867,0,1,0,.121,4.05,2.867,2.867,0,0,0-.121-4.05" fill="#005792" fill-rule="evenodd"/>
            <path id="Fill-357" d="M312.152,221.982a2.864,2.864,0,1,0,.113,4.05,2.862,2.862,0,0,0-.113-4.05" fill="#005792" fill-rule="evenodd"/>
            <path id="Fill-359" d="M325.273,208.054a2.869,2.869,0,1,0,.117,4.052,2.889,2.889,0,0,0-.117-4.052" fill="#005792" fill-rule="evenodd"/>
            <path id="Fill-361" d="M228.564,336.674a2.865,2.865,0,1,0,.117,4.053,2.882,2.882,0,0,0-.117-4.053" fill="#005792" fill-rule="evenodd"/>
            <path id="Fill-363" d="M241.683,321.936a2.868,2.868,0,1,0,.1,4.035,2.871,2.871,0,0,0-.1-4.035" fill="#005792" fill-rule="evenodd"/>
            <path id="Fill-365" d="M255.6,308a2.866,2.866,0,1,0,.121,4.049A2.87,2.87,0,0,0,255.6,308" fill="#005792" fill-rule="evenodd"/>
            <path id="Fill-367" d="M268.72,293.251a2.869,2.869,0,1,0,.117,4.061,2.872,2.872,0,0,0-.117-4.061" fill="#005792" fill-rule="evenodd"/>
            <path id="Fill-369" d="M283.472,277.689a2.869,2.869,0,1,0,.117,4.053,2.872,2.872,0,0,0-.117-4.053" fill="#005792" fill-rule="evenodd"/>
            <path id="Fill-371" d="M296.58,262.944a2.867,2.867,0,1,0,.113,4.051,2.861,2.861,0,0,0-.113-4.051" fill="#005792" fill-rule="evenodd"/>
            <path id="Fill-373" d="M310.512,248.2a2.868,2.868,0,1,0,.113,4.053,2.864,2.864,0,0,0-.113-4.053" fill="#005792" fill-rule="evenodd"/>
            <path id="Fill-375" d="M323.627,234.27a2.869,2.869,0,1,0,.117,4.052,2.867,2.867,0,0,0-.117-4.052" fill="#005792" fill-rule="evenodd"/>
            <path id="Fill-377" d="M333.537,223.71a2.888,2.888,0,0,0,1.721.765c.037-1.944.012-3.848-.057-5.735a2.889,2.889,0,0,0-1.664,4.97" fill="#005792" fill-rule="evenodd"/>
            <path id="Fill-379" d="M237.607,347.115c.865,0,1.721-.008,2.561-.053a2.9,2.9,0,0,0-2.561.053" fill="#005792" fill-rule="evenodd"/>
            <path id="Fill-381" d="M253.969,334.223a2.868,2.868,0,1,0,.109,4.053,2.869,2.869,0,0,0-.109-4.053" fill="#005792" fill-rule="evenodd"/>
            <path id="Fill-383" d="M268.727,319.469a2.872,2.872,0,1,0,.109,4.059,2.877,2.877,0,0,0-.109-4.059" fill="#005792" fill-rule="evenodd"/>
            <path id="Fill-385" d="M281.833,304.724a2.869,2.869,0,1,0,.121,4.05,2.866,2.866,0,0,0-.121-4.05" fill="#005792" fill-rule="evenodd"/>
            <path id="Fill-387" d="M294.949,290.8a2.869,2.869,0,1,0,.1,4.053,2.869,2.869,0,0,0-.1-4.053" fill="#005792" fill-rule="evenodd"/>
            <path id="Fill-389" d="M309.7,276.04a2.874,2.874,0,1,0,.109,4.063,2.884,2.884,0,0,0-.109-4.063" fill="#005792" fill-rule="evenodd"/>
            <path id="Fill-391" d="M322.81,261.3a2.87,2.87,0,1,0,.109,4.053,2.87,2.87,0,0,0-.109-4.053" fill="#005792" fill-rule="evenodd"/>
            <path id="Fill-393" d="M332.956,250.358a2.454,2.454,0,0,0,.385.333c.324-1.937.615-3.843.877-5.735a2.781,2.781,0,0,0-1.377.894,3.405,3.405,0,0,0,.115,4.508" fill="#005792" fill-rule="evenodd"/>
            <path id="Fill-395" d="M276.159,329.558a3.618,3.618,0,0,0,.116,4.682s0,0,0,.014c1.66-1.1,3.254-2.243,4.814-3.388a3.441,3.441,0,0,0-.772-1.443,2.718,2.718,0,0,0-4.162.135" fill="#005792" fill-rule="evenodd"/>
            <path id="Fill-397" d="M294.948,316.193a2.869,2.869,0,1,0,.109,4.053,2.872,2.872,0,0,0-.109-4.053" fill="#005792" fill-rule="evenodd"/>
            <path id="Fill-399" d="M304.113,306.436a2.869,2.869,0,1,0-.1-4.053,2.874,2.874,0,0,0,.1,4.053" fill="#005792" fill-rule="evenodd"/>
            <path id="Fill-401" d="M317.07,287.679a3.226,3.226,0,0,0,.11,4.233,2.987,2.987,0,0,0,.762.56c.88-1.763,1.7-3.522,2.487-5.306a2.511,2.511,0,0,0-3.359.513" fill="#005792" fill-rule="evenodd"/>
          </g>
        </g>
      </g>
    </g>
  </g>
</svg>
