<svg xmlns="http://www.w3.org/2000/svg" width="518.983" height="397.864" viewBox="0 0 518.983 397.864">
  <g id="Inner-Page" transform="translate(-0.769 2.864)">
    <g id="About-Page" transform="translate(-1147 -242)">
      <g id="Banner">
        <g id="banner-content" transform="translate(315 197)">
          <g id="Group-3" transform="translate(1366 55) rotate(180)">
            <g id="Humaaan" transform="translate(533 -1) rotate(-180)">
              <g id="Head_Front-Head_Front_Chongo" data-name="Head/Front-Head/Front/Chongo" transform="translate(47.691 17.351) rotate(-8)">
                <g id="Head" transform="translate(48.06 27.507)">
                  <path id="Path_1" data-name="Path 1" d="M33.948,8.1C39.105,17.689,38.492,42,31.827,43.713c-2.658.683-8.321-.99-14.084-4.454L21.36,64.775H0L7.353,30.6C3.252,25.8.477,19.923.941,13.332,2.277-5.657,28.79-1.479,33.948,8.1Z" fill="#b28b67" fill-rule="evenodd"/>
                </g>
                <path id="hair" d="M73.571,25.173a27.958,27.958,0,0,0-8.938-.985,15.285,15.285,0,0,0,1.088-7.747,23.564,23.564,0,0,0-2.521-7,9.579,9.579,0,0,0-1.865-2.9,6.374,6.374,0,0,0-3.017-1.616,8.1,8.1,0,0,0-3.475,0c-.505.106-.959.336-1.454.464s-.754-.185-1.122-.5A6.365,6.365,0,0,0,48.955,3.6a8.564,8.564,0,0,0-3.769.45,7.379,7.379,0,0,0-3.139,2.006,5.246,5.246,0,0,0-.94,1.437c-.091.218-.106.348-.325.428-.2.074-.438.076-.647.147a8.131,8.131,0,0,0-4.68,4.229,13.37,13.37,0,0,0-.736,5.509c.071,2.3,2.151,8.288,4.1,10.473a13.077,13.077,0,0,0,6.751,3.8A19.238,19.238,0,0,0,42.04,38.64a32.012,32.012,0,0,0-1.615,7.967,25.927,25.927,0,0,0,.4,7.854A8.512,8.512,0,0,0,44.643,60a18.259,18.259,0,0,0,2.939,1.376,19.385,19.385,0,0,0,3.027.967c1.967.405,4.234.336,5.75-1.225A10.768,10.768,0,0,0,57.9,59.163c.143-.247.23-.409.056-.651a4.663,4.663,0,0,0-.814-.738,7.64,7.64,0,0,1-2.712-5.063c-.242-2.078.318-4.761,2.345-5.668,2.5-1.12,5.257.166,7.481,1.364a12.2,12.2,0,0,1,5.928-7.845c3.366-1.688,7.228-1.885,10.687-3.333a6.378,6.378,0,0,0,2.483-1.574,3.2,3.2,0,0,0,.713-1.163,1.88,1.88,0,0,0-.495-1.461C82.1,30.722,76.489,26.061,73.571,25.173Z" fill-rule="evenodd"/>
              </g>
              <g id="Bottom_Skinny-Jeans-1-Bottom_Standing_Jogging" data-name="Bottom/Skinny-Jeans-1-Bottom/Standing/Jogging" transform="translate(0 171.93)">
                <path id="Leg" d="M115.7,0l66.133,110.23,49.581,93.19h10.679L159.02,0Z" fill="#997659" fill-rule="evenodd"/>
                <g id="Right-Shoe-Accessories_Shoe_Flat-Sneaker" data-name="Right-Shoe-Accessories/Shoe/Flat-Sneaker" transform="translate(222.5 176.577)">
                  <path id="shoe" d="M2.3,22.77A18.412,18.412,0,0,0,.89,28.488a44.4,44.4,0,0,0,.8,7h50.2q1.957-6.449-2.259-6.964t-7-.929L19.4,17.276a1,1,0,0,0-1.32.508l-.01.024L16.61,21.33h0a16.043,16.043,0,0,1-6.343,1.815A14,14,0,0,1,4.993,21.64h0a2,2,0,0,0-2.644,1Q2.321,22.706,2.3,22.77Z" fill="#e4e4e4" fill-rule="evenodd"/>
                </g>
                <path id="Pant" d="M217.643,188.5l20.595-6.211Q224.7,141.946,205.061,93.5T162.87,0H104.7a910.952,910.952,0,0,0,53.153,103.573A701.026,701.026,0,0,0,217.643,188.5Z" fill="#db2721" fill-rule="evenodd"/>
                <path id="Leg-2" data-name="Leg" d="M111.354,0c-6.242,38.735-18.28,88.224-19.416,89.752q-1.136,1.527-81.8,27.328l2.307,9.389Q108.636,112.631,113.814,105c5.178-7.634,31.032-67.94,41.046-105Z" fill="#b28b67" fill-rule="evenodd"/>
                <path id="Pant-2" data-name="Pant" d="M29.04,108.964,33.1,124.085q71.946,6.291,88.166-9.091T158.241,0H102.776q-13.148,81.568-14.7,84.992T29.04,108.964Z" fill="#ff4133" fill-rule="evenodd"/>
                <g id="Left-Shoe-Accessories_Shoe_Flat-Sneaker" data-name="Left-Shoe-Accessories/Shoe/Flat-Sneaker" transform="translate(34.568 106.834) rotate(80)">
                  <path id="shoe-2" data-name="shoe" d="M2.3,22.77A18.412,18.412,0,0,0,.89,28.488a44.4,44.4,0,0,0,.8,7h50.2q1.957-6.449-2.259-6.964t-7-.929L19.4,17.276a1,1,0,0,0-1.32.508l-.01.024L16.61,21.33h0a16.043,16.043,0,0,1-6.343,1.815A14,14,0,0,1,4.993,21.64h0a2,2,0,0,0-2.644,1Q2.321,22.706,2.3,22.77Z" fill="#e4e4e4" fill-rule="evenodd"/>
                </g>
              </g>
              <g id="Body_Long-Sleeve-1-Body_Jacket" data-name="Body/Long-Sleeve-1-Body/Jacket" transform="translate(4.937 96.835) rotate(-8)">
                <path id="Skin" d="M60.818,82.53l18.6.062Q62.156,138.05,60.782,141.444c-2.062,5.09,2.29,12.838,4.151,17-6.071,2.712-5.418-7.318-13.076-3.761-6.99,3.246-12.309,9.124-20.38,4.161-.992-.61-2.079-2.909.551-4.708,6.55-4.481,15.991-12.323,17.267-14.9q2.611-5.278,11.523-56.7Zm111.877-3.455L197.912,103.6a76.524,76.524,0,0,1,18.034,10.339c1.054,1.267,2.2,3.7-2.756,2.608s-10.221-2.01-11.153-.4,1.815,4.071.093,6.174q-1.721,2.1-11.586-13.386l-26.22-15.418Z" fill="#b28b67" fill-rule="evenodd"/>
                <path id="Coat-Back" d="M108.6,8.192l7.552-1.98q24.126,47.584,77,83.581l-22.212,32.272C134.691,86.679,110.956,48.979,108.6,8.192Z" transform="translate(6.164 -12.905) rotate(5)" fill="#005792" fill-rule="evenodd"/>
                <path id="Shirt" d="M80.1,101.155h68.53Q124.815,43.424,124.815,3.071L104.143,0C87.9,26.05,83.308,58.124,80.1,101.155Z" fill="#dde3e9" fill-rule="evenodd"/>
                <path id="Coat-Front" d="M105.063,0q2.422.083,7.378.3h0l5,14.232q.793,26.028,9.257,104.908H81.77q.177,5.448.583,11H48.95Q56.445,46.137,103.689,0h0l.016.015L103.713,0Z" fill="#005792" fill-rule="evenodd"/>
                <path id="Shade" d="M94.34,119.789H81.781A233.422,233.422,0,0,1,84.737,72.97Q86.656,106.928,94.34,119.789Z" fill="rgba(0,0,0,0.1)" fill-rule="evenodd"/>
                <path id="Light" d="M91.769,92.282,113.92,82.015V92.282Z" fill="rgba(255,255,255,0.2)" fill-rule="evenodd"/>
              </g>
            </g>
            <g id="Humaaan-2" data-name="Humaaan">
              <g id="Head_Front-Head_Front_Airy" data-name="Head/Front-Head/Front/Airy" transform="translate(92.409 -0.785) rotate(-7)">
                <g id="Head-2" data-name="Head" transform="translate(48.06 -27.507)">
                  <path id="Path_2" data-name="Path 2" d="M33.948-8.1c5.157-9.584,4.545-33.9-2.121-35.608-2.658-.683-8.321.99-14.084,4.454L21.36-64.775H0L7.353-30.6C3.252-25.8.477-19.923.941-13.332,2.277,5.657,28.79,1.479,33.948-8.1Z" fill="#b28b67" fill-rule="evenodd"/>
                </g>
                <path id="hair-2" data-name="hair" d="M69.833-24.566c-2.815.46-10.4.777-11.793.777-.893,0-1.861-.2-2.39.614-.433.67-.275,1.8-.4,2.579-.15.9-.363,1.794-.579,2.683a27.229,27.229,0,0,1-2.841,7.2A22.159,22.159,0,0,1,41.311-1.227,33.857,33.857,0,0,1,25.348.962C19.618.5,14.432-1.387,9.023-3.161A34.311,34.311,0,0,0-6.923-4.692c-5.432.832-9.536,3.767-14.118,6.553-4.69,2.852-10.051,4.718-15.6,4.289A30.09,30.09,0,0,1-50.863.772c-4-2.663-7.309-5.867-9.174-10.377-2.007-4.851-2.005-10.176,1.3-14.463,4.783-6.214,13.664-7.821,21.052-7.661a40.33,40.33,0,0,1,12.5,2.285c5.381,1.887,10.03,5.085,15.064,7.68a39.268,39.268,0,0,0,7.364,2.938c2.484.7,4.93,1.02,7.179-.476a33.927,33.927,0,0,1,7.232-4.128,23.386,23.386,0,0,1,8.158-1.46c5.412.042,10.747,1.723,16,2.849,4.286.918,8.872,1.833,13.242.951,1.823-.368,4.487-1.129,5.145-3.018-11.084-2-15.438-15.67-12.313-25.7,1.687-5.415,11.825-11.746,15.766-8.9,2.5,1.8.981,4.171,0,5.734-1.879,2.993-2.522,6.838.955,8.922,3,1.8,6.152-2.471,6.212-2.466.824.065,7.947,4.081,12.854,9.941,4.841-.286,5.575,2.9,4.42,5.5S73.723-25.2,69.833-24.566Z" fill-rule="evenodd"/>
              </g>
              <g id="Bottom_Skinny-Jeans-1-Bottom_Standing_Sprint" data-name="Bottom/Skinny-Jeans-1-Bottom/Standing/Sprint" transform="translate(0 -172.93)">
                <path id="Leg-3" data-name="Leg" d="M184.648,8.57C167.627-5.265,174.1-126.572,172.966-128.1q-.757-1.018-80.923-17.327l2.307-9.389q93.773,4.64,99.239,11.58,7.825,9.935,19.342,111.13Z" transform="matrix(0.574, 0.819, -0.819, 0.574, 5.126, -156.091)" fill="#b28b67" fill-rule="evenodd"/>
                <path id="Pant-3" data-name="Pant" d="M101.051-135.546l4.063-15.121c46.6-5.335,77.321,1.269,88.134,11.524q10.813,10.255,19.392,110.828l-30.256,43.08c-40.518-30.476-16.366-130.242-17.4-132.524S139.371-121.847,101.051-135.546Z" transform="matrix(0.574, 0.819, -0.819, 0.574, 10.445, -157.86)" fill="#005792" fill-rule="evenodd"/>
                <g id="Right-Show-Accessories_Shoe_Flat-Sneaker" data-name="Right-Show-Accessories/Shoe/Flat-Sneaker" transform="translate(179.373 -140.217) rotate(-20)">
                  <path id="shoe-3" data-name="shoe" d="M2.3-22.77A18.412,18.412,0,0,1,.89-28.488a44.4,44.4,0,0,1,.8-7h50.2q1.957,6.449-2.259,6.964t-7,.929L19.4-17.276a1,1,0,0,1-1.32-.508l-.01-.024L16.61-21.33h0a16.043,16.043,0,0,0-6.343-1.815A14,14,0,0,0,4.993-21.64h0a2,2,0,0,1-2.644-1Q2.321-22.706,2.3-22.77Z" fill="#e4e4e4" fill-rule="evenodd"/>
                </g>
                <path id="Leg-4" data-name="Leg" d="M115.7,0,69.646-110.23l-45.264-93.19H35.061L151.9,0Z" fill="#997659" fill-rule="evenodd"/>
                <g id="Left-Shot-Accessories_Shoe_Flat-Sneaker" data-name="Left-Shot-Accessories/Shoe/Flat-Sneaker" transform="translate(21.36 -176.577)">
                  <path id="shoe-4" data-name="shoe" d="M2.3-22.77A18.412,18.412,0,0,1,.89-28.488a44.4,44.4,0,0,1,.8-7h50.2q1.957,6.449-2.259,6.964t-7,.929L19.4-17.276a1,1,0,0,1-1.32-.508l-.01-.024L16.61-21.33h0a16.043,16.043,0,0,0-6.343-1.815A14,14,0,0,0,4.993-21.64h0a2,2,0,0,1-2.644-1Q2.321-22.706,2.3-22.77Z" fill="#e4e4e4" fill-rule="evenodd"/>
                </g>
                <path id="Pant-4" data-name="Pant" d="M28.47-184.06,52.2-188.5C70.547-161.6,147.331-51.333,155.75,0H102.923C74.809-37.109,45.959-156.722,28.47-184.06Z" fill="#005792" fill-rule="evenodd"/>
              </g>
              <g id="Body_Long-Sleeve-1-Body_Jacket-2" data-name="Body/Long-Sleeve-1-Body/Jacket-2" transform="translate(30.54 -66.496) rotate(-7)">
                <path id="Skin-2" data-name="Skin" d="M45.843-72.761,64.08-76.369q-27.512-51.117-29.508-54.184c-2.995-4.6-.2-13.032.832-17.472-6.475-1.5-3.921,8.213-12.115,6.185-7.479-1.852-13.82-6.6-20.793-.195-.857.788-1.485,3.251,1.438,4.514,7.283,3.147,18.042,9.04,19.787,11.327Q27.289-121.514,45.843-72.761ZM226.228-45.48,225.87-46c-2.738-4.024-5.29-8.234-4.192-9.636,1.146-1.463,4.465.152,5.776-2.228q1.311-2.38-16.784-5.694L186.518-82.024l-10.3,13.152,32.249,14.12a76.389,76.389,0,0,0,16.365,12.8C226.408-41.455,229.1-41.3,226.228-45.48Z" fill="#b28b67" fill-rule="evenodd"/>
                <path id="Coat-Back-2" data-name="Coat-Back" d="M109.719-8.764l7.552,1.98c18.116-14.693,28.335-52.9,39.914-57.063,10.948-3.938,25.45,2.062,42.623,9.953L206.3-65.516C191.715-84.3,158.686-101.968,144.04-94.8,120.625-83.343,111.292-35.938,109.719-8.764Z" transform="translate(5.099 13.575) rotate(-5)" fill="#db2721" fill-rule="evenodd"/>
                <path id="Shirt-2" data-name="Shirt" d="M80.1-101.155h68.1c3.112,0,2.525,4.48,2.075,6.74-5.191,26.088-25.456,54.209-25.456,91.345L105.173,0C88.927-26.051,83.309-58.124,80.1-101.155Z" fill="#dde3e9" fill-rule="evenodd"/>
                <path id="Coat-Front-2" data-name="Coat-Front" d="M107.451,0h4.232q26.45-89.891,14.583-119.789H64.97c.97,14.586,4.08,30.011,8.339,45.051Q52.487-112.189,38.3-128.662L24.03-125.875Q37.821-40.6,103.906,0Z" fill="#ff4133" fill-rule="evenodd"/>
              </g>
            </g>
          </g>
        </g>
      </g>
    </g>
  </g>
</svg>
